<?xml version="1.0" encoding="UTF-8"?>
<svg xmlns="http://www.w3.org/2000/svg" xmlns:xlink="http://www.w3.org/1999/xlink" width="375pt" height="374.999991pt" viewBox="0 0 375 374.999991" version="1.2">
<defs>
<clipPath id="clip1">
  <path d="M 112.5 149 L 262.5 149 L 262.5 208 L 112.5 208 Z M 112.5 149 "/>
</clipPath>
<clipPath id="clip2">
  <path d="M 112.5 146 L 262.5 146 L 262.5 229 L 112.5 229 Z M 112.5 146 "/>
</clipPath>
<clipPath id="clip3">
  <path d="M 112.5 145.832031 L 262.5 145.832031 L 262.5 229 L 112.5 229 Z M 112.5 145.832031 "/>
</clipPath>
</defs>
<g id="surface1">
<path style=" stroke:none;fill-rule:nonzero;fill:rgb(100%,98.81897%,96.078491%);fill-opacity:1;" d="M 86.726562 86.726562 L 288.273438 86.726562 L 288.273438 288.273438 L 86.726562 288.273438 Z M 86.726562 86.726562 "/>
<path style=" stroke:none;fill-rule:nonzero;fill:rgb(91.758728%,37.249756%,32.159424%);fill-opacity:1;" d="M 285.921875 285.921875 L 290.625 285.921875 L 290.625 290.625 L 285.921875 290.625 Z M 84.375 89.078125 L 89.078125 89.078125 L 89.078125 285.921875 L 84.375 285.921875 Z M 84.375 285.921875 L 89.078125 285.921875 L 89.078125 290.625 L 84.375 290.625 Z M 285.921875 89.078125 L 290.625 89.078125 L 290.625 285.921875 L 285.921875 285.921875 Z M 89.078125 285.921875 L 285.921875 285.921875 L 285.921875 290.625 L 89.078125 290.625 Z M 285.921875 84.375 L 290.625 84.375 L 290.625 89.078125 L 285.921875 89.078125 Z M 84.375 84.375 L 89.078125 84.375 L 89.078125 89.078125 L 84.375 89.078125 Z M 89.078125 84.375 L 285.921875 84.375 L 285.921875 89.078125 L 89.078125 89.078125 Z M 89.078125 84.375 "/>
<g clip-path="url(#clip1)" clip-rule="nonzero">
<path style=" stroke:none;fill-rule:nonzero;fill:rgb(94.898987%,73.728943%,15.689087%);fill-opacity:1;" d="M 262.082031 154.617188 L 262.082031 158.191406 M 262.082031 158.191406 L 262.082031 207.859375 L 112.816406 207.859375 L 112.816406 149.078125 L 262.082031 149.078125 L 262.082031 154.617188 "/>
</g>
<g clip-path="url(#clip2)" clip-rule="nonzero">
<path style=" stroke:none;fill-rule:nonzero;fill:rgb(30.979919%,73.728943%,61.569214%);fill-opacity:1;" d="M 115.851562 205.097656 L 232.667969 205.097656 L 232.667969 151.839844 L 115.851562 151.839844 Z M 257.714844 146.015625 C 210.632812 146.015625 163.566406 146.015625 116.484375 146.015625 C 115.25 147.015625 114.035156 148.011719 112.800781 149.027344 L 262.066406 149.027344 C 260.617188 148.011719 259.164062 147.015625 257.714844 146.015625 Z M 118.550781 207.792969 C 118.550781 214.695312 118.550781 221.597656 118.550781 228.503906 C 119.71875 228.503906 120.882812 228.503906 122.035156 228.503906 C 122.449219 228.1875 122.882812 227.871094 123.300781 227.554688 C 123.285156 220.96875 123.25 214.378906 123.234375 207.792969 Z M 123.316406 221.980469 L 125.433594 221.980469 L 125.433594 207.960938 L 123.316406 207.960938 Z M 251.480469 228.335938 L 255.449219 228.335938 L 255.449219 207.960938 L 251.480469 207.960938 Z M 247.5 207.960938 L 250.414062 207.960938 L 250.414062 221.980469 L 247.5 221.980469 L 247.5 207.960938 "/>
</g>
<path style=" stroke:none;fill-rule:nonzero;fill:rgb(13.328552%,33.729553%,76.469421%);fill-opacity:1;" d="M 122.050781 207.960938 L 123.316406 207.960938 L 123.316406 227.71875 C 122.902344 228.035156 122.46875 228.351562 122.050781 228.667969 C 122.050781 221.765625 122.050781 214.863281 122.050781 207.960938 Z M 125.433594 207.960938 L 126.585938 207.960938 L 126.585938 221.285156 C 126.199219 221.515625 125.816406 221.75 125.433594 221.980469 C 125.433594 217.308594 125.433594 212.632812 125.433594 207.960938 Z M 246.398438 207.960938 L 247.5 207.960938 L 247.5 221.980469 C 247.132812 221.664062 246.765625 221.367188 246.398438 221.050781 C 246.398438 216.691406 246.398438 212.335938 246.398438 207.960938 Z M 250.414062 227.070312 C 250.765625 227.488281 251.117188 227.921875 251.464844 228.335938 L 251.464844 207.960938 L 250.414062 207.960938 C 250.414062 214.332031 250.414062 220.703125 250.414062 227.070312 Z M 232.667969 199.558594 L 253.964844 199.34375 L 254.148438 152.085938 L 259.066406 152.085938 L 259.066406 205.363281 L 232.667969 205.113281 L 232.667969 199.558594 "/>
<path style=" stroke:none;fill-rule:nonzero;fill:rgb(94.898987%,73.728943%,15.689087%);fill-opacity:1;" d="M 119.734375 201.871094 L 228.78125 201.871094 L 228.78125 153.984375 L 119.734375 153.984375 Z M 257.832031 177.917969 L 232.765625 177.917969 L 232.765625 173.777344 C 239.980469 173.777344 247.214844 173.777344 254.433594 173.777344 C 255.566406 175.175781 256.699219 176.554688 257.832031 177.917969 "/>
<path style=" stroke:none;fill-rule:nonzero;fill:rgb(13.328552%,33.729553%,76.469421%);fill-opacity:1;" d="M 183.882812 198.894531 L 182.566406 198.894531 L 182.566406 200.207031 L 183.882812 200.207031 Z M 181.234375 198.894531 L 179.917969 198.894531 L 179.917969 200.207031 L 181.234375 200.207031 Z M 178.582031 198.894531 L 177.265625 198.894531 L 177.265625 200.207031 L 178.582031 200.207031 Z M 175.933594 198.894531 L 174.617188 198.894531 L 174.617188 200.207031 L 175.933594 200.207031 Z M 173.265625 198.894531 L 171.949219 198.894531 L 171.949219 200.207031 L 173.265625 200.207031 Z M 170.617188 198.894531 L 169.300781 198.894531 L 169.300781 200.207031 L 170.617188 200.207031 Z M 167.96875 198.894531 L 166.648438 198.894531 L 166.648438 200.207031 L 167.96875 200.207031 Z M 165.316406 198.894531 L 164 198.894531 L 164 200.207031 L 165.316406 200.207031 Z M 183.882812 193.273438 L 182.566406 193.273438 L 182.566406 194.585938 L 183.882812 194.585938 Z M 181.234375 193.273438 L 179.917969 193.273438 L 179.917969 194.585938 L 181.234375 194.585938 Z M 178.582031 193.273438 L 177.265625 193.273438 L 177.265625 194.585938 L 178.582031 194.585938 Z M 175.933594 193.273438 L 174.617188 193.273438 L 174.617188 194.585938 L 175.933594 194.585938 Z M 173.265625 193.273438 L 171.949219 193.273438 L 171.949219 194.585938 L 173.265625 194.585938 Z M 170.617188 193.273438 L 169.300781 193.273438 L 169.300781 194.585938 L 170.617188 194.585938 Z M 167.96875 193.273438 L 166.648438 193.273438 L 166.648438 194.585938 L 167.96875 194.585938 Z M 165.316406 193.273438 L 164 193.273438 L 164 194.585938 L 165.316406 194.585938 Z M 183.882812 196.082031 L 182.566406 196.082031 L 182.566406 197.398438 L 183.882812 197.398438 Z M 181.234375 196.082031 L 179.917969 196.082031 L 179.917969 197.398438 L 181.234375 197.398438 Z M 178.582031 196.082031 L 177.265625 196.082031 L 177.265625 197.398438 L 178.582031 197.398438 Z M 175.933594 196.082031 L 174.617188 196.082031 L 174.617188 197.398438 L 175.933594 197.398438 Z M 173.265625 196.082031 L 171.949219 196.082031 L 171.949219 197.398438 L 173.265625 197.398438 Z M 170.617188 196.082031 L 169.300781 196.082031 L 169.300781 197.398438 L 170.617188 197.398438 Z M 167.96875 196.082031 L 166.648438 196.082031 L 166.648438 197.398438 L 167.96875 197.398438 Z M 165.316406 196.082031 L 164 196.082031 L 164 197.398438 L 165.316406 197.398438 Z M 183.882812 190.476562 L 182.566406 190.476562 L 182.566406 191.792969 L 183.882812 191.792969 Z M 181.234375 190.476562 L 179.917969 190.476562 L 179.917969 191.792969 L 181.234375 191.792969 Z M 178.582031 190.476562 L 177.265625 190.476562 L 177.265625 191.792969 L 178.582031 191.792969 Z M 175.933594 190.476562 L 174.617188 190.476562 L 174.617188 191.792969 L 175.933594 191.792969 Z M 173.265625 190.476562 L 171.949219 190.476562 L 171.949219 191.792969 L 173.265625 191.792969 Z M 170.617188 190.476562 L 169.300781 190.476562 L 169.300781 191.792969 L 170.617188 191.792969 Z M 167.96875 190.476562 L 166.648438 190.476562 L 166.648438 191.792969 L 167.96875 191.792969 Z M 165.316406 190.476562 L 164 190.476562 L 164 191.792969 L 165.316406 191.792969 Z M 183.882812 184.855469 L 182.566406 184.855469 L 182.566406 186.167969 L 183.882812 186.167969 Z M 181.234375 184.855469 L 179.917969 184.855469 L 179.917969 186.167969 L 181.234375 186.167969 Z M 178.582031 184.855469 L 177.265625 184.855469 L 177.265625 186.167969 L 178.582031 186.167969 Z M 175.933594 184.855469 L 174.617188 184.855469 L 174.617188 186.167969 L 175.933594 186.167969 Z M 173.265625 184.855469 L 171.949219 184.855469 L 171.949219 186.167969 L 173.265625 186.167969 Z M 170.617188 184.855469 L 169.300781 184.855469 L 169.300781 186.167969 L 170.617188 186.167969 Z M 167.96875 184.855469 L 166.648438 184.855469 L 166.648438 186.167969 L 167.96875 186.167969 Z M 165.316406 184.855469 L 164 184.855469 L 164 186.167969 L 165.316406 186.167969 Z M 183.882812 187.667969 L 182.566406 187.667969 L 182.566406 188.980469 L 183.882812 188.980469 Z M 181.234375 187.667969 L 179.917969 187.667969 L 179.917969 188.980469 L 181.234375 188.980469 Z M 178.582031 187.667969 L 177.265625 187.667969 L 177.265625 188.980469 L 178.582031 188.980469 Z M 175.933594 187.667969 L 174.617188 187.667969 L 174.617188 188.980469 L 175.933594 188.980469 Z M 173.265625 187.667969 L 171.949219 187.667969 L 171.949219 188.980469 L 173.265625 188.980469 Z M 170.617188 187.667969 L 169.300781 187.667969 L 169.300781 188.980469 L 170.617188 188.980469 Z M 167.96875 187.667969 L 166.648438 187.667969 L 166.648438 188.980469 L 167.96875 188.980469 Z M 165.316406 187.667969 L 164 187.667969 L 164 188.980469 L 165.316406 188.980469 Z M 183.882812 179.234375 L 182.566406 179.234375 L 182.566406 180.546875 L 183.882812 180.546875 Z M 181.234375 179.234375 L 179.917969 179.234375 L 179.917969 180.546875 L 181.234375 180.546875 Z M 178.582031 179.234375 L 177.265625 179.234375 L 177.265625 180.546875 L 178.582031 180.546875 Z M 175.933594 179.234375 L 174.617188 179.234375 L 174.617188 180.546875 L 175.933594 180.546875 Z M 173.265625 179.234375 L 171.949219 179.234375 L 171.949219 180.546875 L 173.265625 180.546875 Z M 170.617188 179.234375 L 169.300781 179.234375 L 169.300781 180.546875 L 170.617188 180.546875 Z M 167.96875 179.234375 L 166.648438 179.234375 L 166.648438 180.546875 L 167.96875 180.546875 Z M 165.316406 179.234375 L 164 179.234375 L 164 180.546875 L 165.316406 180.546875 Z M 183.882812 182.042969 L 182.566406 182.042969 L 182.566406 183.359375 L 183.882812 183.359375 Z M 181.234375 182.042969 L 179.917969 182.042969 L 179.917969 183.359375 L 181.234375 183.359375 Z M 178.582031 182.042969 L 177.265625 182.042969 L 177.265625 183.359375 L 178.582031 183.359375 Z M 175.933594 182.042969 L 174.617188 182.042969 L 174.617188 183.359375 L 175.933594 183.359375 Z M 173.265625 182.042969 L 171.949219 182.042969 L 171.949219 183.359375 L 173.265625 183.359375 Z M 170.617188 182.042969 L 169.300781 182.042969 L 169.300781 183.359375 L 170.617188 183.359375 Z M 167.96875 182.042969 L 166.648438 182.042969 L 166.648438 183.359375 L 167.96875 183.359375 Z M 165.316406 182.042969 L 164 182.042969 L 164 183.359375 L 165.316406 183.359375 Z M 183.882812 176.4375 L 182.566406 176.4375 L 182.566406 177.753906 L 183.882812 177.753906 Z M 181.234375 176.4375 L 179.917969 176.4375 L 179.917969 177.753906 L 181.234375 177.753906 Z M 178.582031 176.4375 L 177.265625 176.4375 L 177.265625 177.753906 L 178.582031 177.753906 Z M 175.933594 176.4375 L 174.617188 176.4375 L 174.617188 177.753906 L 175.933594 177.753906 Z M 173.265625 176.4375 L 171.949219 176.4375 L 171.949219 177.753906 L 173.265625 177.753906 Z M 170.617188 176.4375 L 169.300781 176.4375 L 169.300781 177.753906 L 170.617188 177.753906 Z M 167.96875 176.4375 L 166.648438 176.4375 L 166.648438 177.753906 L 167.96875 177.753906 Z M 165.316406 176.4375 L 164 176.4375 L 164 177.753906 L 165.316406 177.753906 Z M 183.882812 170.816406 L 182.566406 170.816406 L 182.566406 172.132812 L 183.882812 172.132812 Z M 181.234375 170.816406 L 179.917969 170.816406 L 179.917969 172.132812 L 181.234375 172.132812 Z M 178.582031 170.816406 L 177.265625 170.816406 L 177.265625 172.132812 L 178.582031 172.132812 Z M 175.933594 170.816406 L 174.617188 170.816406 L 174.617188 172.132812 L 175.933594 172.132812 Z M 173.265625 170.816406 L 171.949219 170.816406 L 171.949219 172.132812 L 173.265625 172.132812 Z M 170.617188 170.816406 L 169.300781 170.816406 L 169.300781 172.132812 L 170.617188 172.132812 Z M 167.96875 170.816406 L 166.648438 170.816406 L 166.648438 172.132812 L 167.96875 172.132812 Z M 165.316406 170.816406 L 164 170.816406 L 164 172.132812 L 165.316406 172.132812 Z M 183.882812 173.628906 L 182.566406 173.628906 L 182.566406 174.941406 L 183.882812 174.941406 Z M 181.234375 173.628906 L 179.917969 173.628906 L 179.917969 174.941406 L 181.234375 174.941406 Z M 178.582031 173.628906 L 177.265625 173.628906 L 177.265625 174.941406 L 178.582031 174.941406 Z M 175.933594 173.628906 L 174.617188 173.628906 L 174.617188 174.941406 L 175.933594 174.941406 Z M 173.265625 173.628906 L 171.949219 173.628906 L 171.949219 174.941406 L 173.265625 174.941406 Z M 170.617188 173.628906 L 169.300781 173.628906 L 169.300781 174.941406 L 170.617188 174.941406 Z M 167.96875 173.628906 L 166.648438 173.628906 L 166.648438 174.941406 L 167.96875 174.941406 Z M 165.316406 173.628906 L 164 173.628906 L 164 174.941406 L 165.316406 174.941406 Z M 183.882812 165.195312 L 182.566406 165.195312 L 182.566406 166.507812 L 183.882812 166.507812 Z M 181.234375 165.195312 L 179.917969 165.195312 L 179.917969 166.507812 L 181.234375 166.507812 Z M 178.582031 165.195312 L 177.265625 165.195312 L 177.265625 166.507812 L 178.582031 166.507812 Z M 175.933594 165.195312 L 174.617188 165.195312 L 174.617188 166.507812 L 175.933594 166.507812 Z M 173.265625 165.195312 L 171.949219 165.195312 L 171.949219 166.507812 L 173.265625 166.507812 Z M 170.617188 165.195312 L 169.300781 165.195312 L 169.300781 166.507812 L 170.617188 166.507812 Z M 167.96875 165.195312 L 166.648438 165.195312 L 166.648438 166.507812 L 167.96875 166.507812 Z M 165.316406 165.195312 L 164 165.195312 L 164 166.507812 L 165.316406 166.507812 Z M 183.882812 168.007812 L 182.566406 168.007812 L 182.566406 169.320312 L 183.882812 169.320312 Z M 181.234375 168.007812 L 179.917969 168.007812 L 179.917969 169.320312 L 181.234375 169.320312 Z M 178.582031 168.007812 L 177.265625 168.007812 L 177.265625 169.320312 L 178.582031 169.320312 Z M 175.933594 168.007812 L 174.617188 168.007812 L 174.617188 169.320312 L 175.933594 169.320312 Z M 173.265625 168.007812 L 171.949219 168.007812 L 171.949219 169.320312 L 173.265625 169.320312 Z M 170.617188 168.007812 L 169.300781 168.007812 L 169.300781 169.320312 L 170.617188 169.320312 Z M 167.96875 168.007812 L 166.648438 168.007812 L 166.648438 169.320312 L 167.96875 169.320312 Z M 165.316406 168.007812 L 164 168.007812 L 164 169.320312 L 165.316406 169.320312 Z M 183.882812 159.589844 L 182.566406 159.589844 L 182.566406 160.902344 L 183.882812 160.902344 Z M 181.234375 159.589844 L 179.917969 159.589844 L 179.917969 160.902344 L 181.234375 160.902344 Z M 178.582031 159.589844 L 177.265625 159.589844 L 177.265625 160.902344 L 178.582031 160.902344 Z M 175.933594 159.589844 L 174.617188 159.589844 L 174.617188 160.902344 L 175.933594 160.902344 Z M 173.265625 159.589844 L 171.949219 159.589844 L 171.949219 160.902344 L 173.265625 160.902344 Z M 170.617188 159.589844 L 169.300781 159.589844 L 169.300781 160.902344 L 170.617188 160.902344 Z M 167.96875 159.589844 L 166.648438 159.589844 L 166.648438 160.902344 L 167.96875 160.902344 Z M 165.316406 159.589844 L 164 159.589844 L 164 160.902344 L 165.316406 160.902344 Z M 183.882812 162.402344 L 182.566406 162.402344 L 182.566406 163.714844 L 183.882812 163.714844 Z M 181.234375 162.402344 L 179.917969 162.402344 L 179.917969 163.714844 L 181.234375 163.714844 Z M 178.582031 162.402344 L 177.265625 162.402344 L 177.265625 163.714844 L 178.582031 163.714844 Z M 175.933594 162.402344 L 174.617188 162.402344 L 174.617188 163.714844 L 175.933594 163.714844 Z M 173.265625 162.402344 L 171.949219 162.402344 L 171.949219 163.714844 L 173.265625 163.714844 Z M 170.617188 162.402344 L 169.300781 162.402344 L 169.300781 163.714844 L 170.617188 163.714844 Z M 167.96875 162.402344 L 166.648438 162.402344 L 166.648438 163.714844 L 167.96875 163.714844 Z M 165.316406 162.402344 L 164 162.402344 L 164 163.714844 L 165.316406 163.714844 Z M 183.882812 153.96875 L 182.566406 153.96875 L 182.566406 155.28125 L 183.882812 155.28125 Z M 181.234375 153.96875 L 179.917969 153.96875 L 179.917969 155.28125 L 181.234375 155.28125 Z M 178.582031 153.96875 L 177.265625 153.96875 L 177.265625 155.28125 L 178.582031 155.28125 Z M 175.933594 153.96875 L 174.617188 153.96875 L 174.617188 155.28125 L 175.933594 155.28125 Z M 173.265625 153.96875 L 171.949219 153.96875 L 171.949219 155.28125 L 173.265625 155.28125 Z M 170.617188 153.96875 L 169.300781 153.96875 L 169.300781 155.28125 L 170.617188 155.28125 Z M 167.96875 153.96875 L 166.648438 153.96875 L 166.648438 155.28125 L 167.96875 155.28125 Z M 165.316406 153.96875 L 164 153.96875 L 164 155.28125 L 165.316406 155.28125 Z M 183.882812 156.777344 L 182.566406 156.777344 L 182.566406 158.09375 L 183.882812 158.09375 Z M 181.234375 156.777344 L 179.917969 156.777344 L 179.917969 158.09375 L 181.234375 158.09375 Z M 178.582031 156.777344 L 177.265625 156.777344 L 177.265625 158.09375 L 178.582031 158.09375 Z M 175.933594 156.777344 L 174.617188 156.777344 L 174.617188 158.09375 L 175.933594 158.09375 Z M 173.265625 156.777344 L 171.949219 156.777344 L 171.949219 158.09375 L 173.265625 158.09375 Z M 170.617188 156.777344 L 169.300781 156.777344 L 169.300781 158.09375 L 170.617188 158.09375 Z M 167.96875 156.777344 L 166.648438 156.777344 L 166.648438 158.09375 L 167.96875 158.09375 Z M 165.316406 156.777344 L 164 156.777344 L 164 158.09375 L 165.316406 158.09375 Z M 257.648438 181.210938 L 232.765625 181.210938 L 232.765625 177.917969 L 257.648438 177.917969 L 257.648438 181.210938 "/>
<g clip-path="url(#clip3)" clip-rule="nonzero">
<path style=" stroke:none;fill-rule:nonzero;fill:rgb(19.999695%,19.999695%,19.999695%);fill-opacity:1;" d="M 188.132812 201.503906 L 188.132812 199.226562 L 228.132812 199.226562 L 228.132812 201.503906 Z M 119.734375 154.285156 L 121.699219 154.285156 L 121.699219 201.523438 L 119.734375 201.523438 Z M 228.132812 156.628906 L 188.132812 156.628906 L 188.132812 154.285156 L 228.132812 154.285156 Z M 188.132812 196.765625 L 228.132812 196.765625 L 228.132812 198.5625 L 188.132812 198.5625 Z M 188.132812 159.089844 L 188.132812 157.292969 L 228.132812 157.292969 L 228.132812 159.089844 Z M 188.132812 161.550781 L 188.132812 159.753906 L 228.132812 159.753906 L 228.132812 161.550781 Z M 188.132812 164.015625 L 188.132812 162.21875 L 228.132812 162.21875 L 228.132812 164.015625 Z M 188.132812 166.492188 L 188.132812 164.695312 L 228.132812 164.695312 L 228.132812 166.492188 Z M 188.132812 168.953125 L 188.132812 167.15625 L 228.132812 167.15625 L 228.132812 168.953125 Z M 188.132812 171.414062 L 188.132812 169.621094 L 228.132812 169.621094 L 228.132812 171.414062 Z M 188.132812 173.894531 L 188.132812 172.097656 L 228.132812 172.097656 L 228.132812 173.894531 Z M 188.132812 176.355469 L 188.132812 174.558594 L 228.132812 174.558594 L 228.132812 176.355469 Z M 188.132812 178.816406 L 188.132812 177.019531 L 228.132812 177.019531 L 228.132812 178.816406 Z M 188.132812 181.296875 L 188.132812 179.5 L 228.132812 179.5 L 228.132812 181.296875 Z M 188.132812 183.757812 L 188.132812 181.960938 L 228.132812 181.960938 L 228.132812 183.757812 Z M 188.132812 186.21875 L 188.132812 184.421875 L 228.132812 184.421875 L 228.132812 186.21875 Z M 188.132812 188.699219 L 188.132812 186.902344 L 228.132812 186.902344 L 228.132812 188.699219 Z M 188.132812 191.160156 L 188.132812 189.363281 L 228.132812 189.363281 L 228.132812 191.160156 Z M 188.132812 193.621094 L 188.132812 191.824219 L 228.132812 191.824219 L 228.132812 193.621094 Z M 188.132812 194.285156 L 228.132812 194.285156 L 228.132812 196.082031 L 188.132812 196.082031 Z M 163 154.285156 L 185.234375 154.285156 L 185.234375 201.523438 L 163 201.523438 Z M 159.71875 154.285156 L 160.617188 154.285156 L 160.617188 201.523438 L 159.71875 201.523438 Z M 157.234375 154.285156 L 159.050781 154.285156 L 159.050781 201.523438 L 157.234375 201.523438 Z M 154.734375 154.285156 L 156.550781 154.285156 L 156.550781 201.523438 L 154.734375 201.523438 Z M 152.25 154.285156 L 154.066406 154.285156 L 154.066406 201.523438 L 152.25 201.523438 Z M 149.765625 154.285156 L 151.585938 154.285156 L 151.585938 201.523438 L 149.765625 201.523438 Z M 147.265625 154.285156 L 149.085938 154.285156 L 149.085938 201.523438 L 147.265625 201.523438 Z M 144.785156 154.285156 L 146.601562 154.285156 L 146.601562 201.523438 L 144.785156 201.523438 Z M 142.300781 154.285156 L 144.117188 154.285156 L 144.117188 201.523438 L 142.300781 201.523438 Z M 139.800781 154.285156 L 141.617188 154.285156 L 141.617188 201.523438 L 139.800781 201.523438 Z M 137.316406 154.285156 L 139.132812 154.285156 L 139.132812 201.523438 L 137.316406 201.523438 Z M 134.835938 154.285156 L 136.652344 154.285156 L 136.652344 201.523438 L 134.835938 201.523438 Z M 132.335938 154.285156 L 134.152344 154.285156 L 134.152344 201.523438 L 132.335938 201.523438 Z M 129.851562 154.285156 L 131.667969 154.285156 L 131.667969 201.523438 L 129.851562 201.523438 Z M 127.351562 154.285156 L 129.167969 154.285156 L 129.167969 201.523438 L 127.351562 201.523438 Z M 124.199219 201.503906 L 122.382812 201.503906 L 122.382812 154.265625 L 124.199219 154.265625 Z M 124.867188 154.285156 L 126.683594 154.285156 L 126.683594 201.523438 L 124.867188 201.523438 Z M 228.464844 153.617188 L 119.402344 153.617188 C 119.21875 153.617188 119.066406 153.765625 119.066406 153.949219 L 119.066406 201.855469 C 119.066406 202.039062 119.21875 202.1875 119.402344 202.1875 L 121.917969 202.1875 C 121.949219 202.203125 122 202.203125 122.035156 202.203125 C 122.066406 202.203125 122.117188 202.1875 122.152344 202.1875 L 124.402344 202.1875 C 124.433594 202.203125 124.484375 202.203125 124.515625 202.203125 C 124.550781 202.203125 124.601562 202.1875 124.632812 202.1875 L 126.882812 202.1875 C 126.917969 202.203125 126.96875 202.203125 127 202.203125 C 127.035156 202.203125 127.085938 202.1875 127.117188 202.1875 L 129.367188 202.1875 C 129.402344 202.203125 129.449219 202.203125 129.484375 202.203125 C 129.515625 202.203125 129.566406 202.1875 129.601562 202.1875 L 131.851562 202.1875 C 131.882812 202.203125 131.933594 202.203125 131.96875 202.203125 C 132 202.203125 132.050781 202.1875 132.085938 202.1875 L 134.367188 202.1875 C 134.402344 202.203125 134.449219 202.203125 134.484375 202.203125 C 134.515625 202.203125 134.566406 202.1875 134.601562 202.1875 L 136.867188 202.1875 C 136.902344 202.203125 136.949219 202.203125 136.984375 202.203125 C 137.015625 202.203125 137.066406 202.1875 137.101562 202.1875 L 139.351562 202.1875 C 139.382812 202.203125 139.433594 202.203125 139.46875 202.203125 C 139.5 202.203125 139.550781 202.1875 139.585938 202.1875 L 141.835938 202.1875 C 141.867188 202.203125 141.917969 202.203125 141.949219 202.203125 C 141.984375 202.203125 142.035156 202.1875 142.066406 202.1875 L 144.316406 202.1875 C 144.351562 202.203125 144.402344 202.203125 144.433594 202.203125 C 144.46875 202.203125 144.515625 202.1875 144.550781 202.1875 L 146.800781 202.1875 C 146.835938 202.203125 146.882812 202.203125 146.917969 202.203125 C 146.949219 202.203125 147 202.1875 147.035156 202.1875 L 149.285156 202.1875 C 149.316406 202.203125 149.367188 202.203125 149.402344 202.203125 C 149.433594 202.203125 149.484375 202.1875 149.515625 202.1875 L 151.765625 202.1875 C 151.800781 202.203125 151.851562 202.203125 151.882812 202.203125 C 151.917969 202.203125 151.96875 202.1875 152 202.1875 L 154.25 202.1875 C 154.285156 202.203125 154.332031 202.203125 154.367188 202.203125 C 154.398438 202.203125 154.449219 202.1875 154.484375 202.1875 L 156.734375 202.1875 C 156.765625 202.203125 156.816406 202.203125 156.851562 202.203125 C 156.882812 202.203125 156.933594 202.1875 156.96875 202.1875 L 159.21875 202.1875 C 159.25 202.203125 159.300781 202.203125 159.332031 202.203125 C 159.367188 202.203125 159.417969 202.1875 159.449219 202.1875 L 228.417969 202.1875 C 228.597656 202.1875 228.75 202.039062 228.75 201.855469 L 228.75 153.949219 C 228.800781 153.765625 228.648438 153.617188 228.464844 153.617188 Z M 116.167969 152.171875 L 232.433594 152.171875 L 232.398438 173.613281 C 232.367188 173.660156 232.347656 173.726562 232.347656 173.777344 C 232.347656 173.84375 232.367188 173.894531 232.398438 173.945312 L 232.347656 199.226562 C 232.347656 199.242188 232.332031 199.261719 232.332031 199.277344 C 232.332031 199.292969 232.332031 199.308594 232.347656 199.328125 L 232.332031 204.765625 L 116.167969 204.765625 Z M 258.714844 204.183594 L 254.480469 199.144531 L 254.480469 181.546875 L 257.632812 181.546875 C 257.816406 181.546875 257.964844 181.394531 257.964844 181.210938 L 257.964844 177.917969 C 257.964844 177.902344 257.964844 177.886719 257.949219 177.871094 C 257.949219 177.851562 257.949219 177.820312 257.933594 177.804688 C 257.914062 177.785156 257.914062 177.753906 257.898438 177.738281 C 257.898438 177.71875 257.882812 177.703125 257.882812 177.703125 L 254.464844 173.660156 L 254.464844 152.171875 L 258.699219 152.171875 Z M 233.015625 199.609375 L 254 199.609375 L 258.332031 204.765625 L 233 204.765625 Z M 253.816406 173.460938 L 233.066406 173.460938 L 233.097656 152.171875 L 253.816406 152.171875 Z M 233.050781 177.585938 L 233.050781 174.109375 L 253.980469 174.109375 L 256.914062 177.585938 Z M 233.097656 180.878906 L 233.097656 178.269531 L 257.316406 178.269531 L 257.316406 180.898438 L 233.097656 180.898438 Z M 233.050781 181.546875 L 253.816406 181.546875 L 253.816406 198.925781 L 233.015625 198.925781 Z M 115.835938 205.429688 L 259.066406 205.429688 C 259.097656 205.429688 259.148438 205.414062 259.183594 205.414062 C 259.199219 205.414062 259.214844 205.398438 259.230469 205.398438 C 259.25 205.382812 259.265625 205.382812 259.28125 205.363281 C 259.28125 205.363281 259.28125 205.363281 259.300781 205.347656 C 259.316406 205.332031 259.332031 205.316406 259.347656 205.296875 C 259.367188 205.28125 259.367188 205.265625 259.382812 205.25 C 259.398438 205.230469 259.398438 205.214844 259.398438 205.199219 C 259.398438 205.183594 259.414062 205.148438 259.414062 205.132812 L 259.414062 151.839844 C 259.414062 151.65625 259.265625 151.503906 259.082031 151.503906 L 115.835938 151.503906 C 115.652344 151.503906 115.5 151.65625 115.5 151.839844 L 115.5 205.113281 C 115.484375 205.28125 115.632812 205.429688 115.835938 205.429688 Z M 261.800781 207.628906 L 113.199219 207.628906 L 113.199219 149.507812 L 261.800781 149.507812 Z M 255.097656 228.003906 L 251.800781 228.003906 L 251.800781 208.292969 L 255.097656 208.292969 Z M 250.75 221.980469 L 250.75 208.292969 L 251.132812 208.292969 L 251.132812 227.402344 L 250.75 226.9375 Z M 247.832031 221.648438 L 247.832031 208.292969 L 250.082031 208.292969 L 250.082031 221.648438 Z M 246.730469 208.292969 L 247.164062 208.292969 L 247.164062 221.265625 L 246.730469 220.902344 Z M 126.25 221.101562 L 125.765625 221.398438 L 125.765625 208.308594 L 126.25 208.308594 Z M 123.585938 208.292969 L 125.101562 208.292969 L 125.101562 221.648438 L 123.632812 221.648438 Z M 122.382812 228.003906 L 122.382812 208.292969 L 122.917969 208.292969 L 122.984375 227.554688 Z M 118.902344 208.292969 L 121.71875 208.292969 L 121.71875 228.335938 L 118.902344 228.335938 Z M 116.667969 146.5 L 257.664062 146.5 L 261.050781 148.84375 L 113.800781 148.84375 Z M 262.464844 149.175781 C 262.464844 149.144531 262.449219 149.09375 262.449219 149.058594 C 262.449219 149.042969 262.433594 149.042969 262.433594 149.027344 C 262.414062 149.011719 262.398438 148.976562 262.382812 148.960938 C 262.367188 148.945312 262.367188 148.945312 262.347656 148.925781 C 262.332031 148.925781 262.332031 148.910156 262.316406 148.910156 L 257.964844 145.898438 C 257.914062 145.867188 257.847656 145.832031 257.78125 145.832031 L 116.550781 145.832031 C 116.46875 145.832031 116.402344 145.867188 116.335938 145.917969 L 112.652344 148.910156 C 112.652344 148.910156 112.652344 148.925781 112.632812 148.925781 C 112.617188 148.945312 112.617188 148.945312 112.601562 148.960938 C 112.585938 148.976562 112.566406 149.011719 112.550781 149.027344 C 112.550781 149.042969 112.535156 149.042969 112.535156 149.058594 C 112.550781 149.09375 112.535156 149.125 112.535156 149.160156 L 112.535156 207.960938 C 112.535156 208.144531 112.683594 208.292969 112.867188 208.292969 L 118.21875 208.292969 L 118.21875 228.667969 C 118.21875 228.851562 118.367188 229 118.550781 229 L 122.035156 229 C 122.066406 229 122.117188 228.984375 122.152344 228.984375 C 122.167969 228.984375 122.167969 228.96875 122.183594 228.96875 C 122.199219 228.96875 122.21875 228.953125 122.234375 228.953125 L 123.5 228.003906 C 123.585938 227.9375 123.632812 227.835938 123.632812 227.738281 L 123.617188 222.332031 L 125.417969 222.332031 C 125.449219 222.332031 125.5 222.316406 125.535156 222.316406 C 125.550781 222.316406 125.550781 222.296875 125.566406 222.296875 C 125.585938 222.296875 125.585938 222.296875 125.601562 222.28125 L 126.75 221.582031 C 126.851562 221.515625 126.917969 221.417969 126.917969 221.300781 L 126.917969 208.308594 L 246.066406 208.308594 L 246.066406 221.082031 C 246.066406 221.183594 246.117188 221.285156 246.183594 221.332031 L 247.28125 222.265625 C 247.300781 222.28125 247.316406 222.28125 247.332031 222.296875 C 247.347656 222.296875 247.367188 222.316406 247.367188 222.316406 C 247.398438 222.332031 247.449219 222.332031 247.480469 222.332031 L 250.066406 222.332031 L 250.066406 227.070312 C 250.066406 227.15625 250.097656 227.222656 250.148438 227.289062 L 251.199219 228.550781 C 251.199219 228.550781 251.199219 228.550781 251.214844 228.570312 C 251.230469 228.585938 251.265625 228.617188 251.300781 228.636719 C 251.316406 228.636719 251.316406 228.652344 251.332031 228.652344 C 251.382812 228.667969 251.414062 228.683594 251.464844 228.683594 L 255.433594 228.683594 C 255.617188 228.683594 255.765625 228.535156 255.765625 228.351562 L 255.765625 208.292969 L 262.132812 208.292969 C 262.316406 208.292969 262.464844 208.144531 262.464844 207.960938 L 262.464844 149.175781 "/>
</g>
</g>
</svg>
