<?xml version="1.0" encoding="UTF-8"?>
<svg xmlns="http://www.w3.org/2000/svg" xmlns:xlink="http://www.w3.org/1999/xlink" width="375pt" height="374.999991pt" viewBox="0 0 375 374.999991" version="1.2">
<defs>
<clipPath id="clip1">
  <path d="M 128.046875 112.5 L 247.296875 112.5 L 247.296875 262.5 L 128.046875 262.5 Z M 128.046875 112.5 "/>
</clipPath>
</defs>
<g id="surface1">
<path style=" stroke:none;fill-rule:nonzero;fill:rgb(100%,98.81897%,96.078491%);fill-opacity:1;" d="M 86.726562 86.726562 L 288.273438 86.726562 L 288.273438 288.273438 L 86.726562 288.273438 Z M 86.726562 86.726562 "/>
<path style=" stroke:none;fill-rule:nonzero;fill:rgb(91.758728%,37.249756%,32.159424%);fill-opacity:1;" d="M 285.921875 285.921875 L 290.625 285.921875 L 290.625 290.625 L 285.921875 290.625 Z M 84.375 89.078125 L 89.078125 89.078125 L 89.078125 285.921875 L 84.375 285.921875 Z M 84.375 285.921875 L 89.078125 285.921875 L 89.078125 290.625 L 84.375 290.625 Z M 285.921875 89.078125 L 290.625 89.078125 L 290.625 285.921875 L 285.921875 285.921875 Z M 89.078125 285.921875 L 285.921875 285.921875 L 285.921875 290.625 L 89.078125 290.625 Z M 285.921875 84.375 L 290.625 84.375 L 290.625 89.078125 L 285.921875 89.078125 Z M 84.375 84.375 L 89.078125 84.375 L 89.078125 89.078125 L 84.375 89.078125 Z M 89.078125 84.375 L 285.921875 84.375 L 285.921875 89.078125 L 89.078125 89.078125 Z M 89.078125 84.375 "/>
<path style=" stroke:none;fill-rule:nonzero;fill:rgb(94.898987%,73.728943%,15.689087%);fill-opacity:1;" d="M 235.089844 146.398438 C 235.300781 148.769531 235.511719 151.199219 235.632812 153.691406 C 236.476562 168.359375 235.453125 181.46875 233.730469 192.570312 C 233.007812 197.191406 229.960938 201.089844 225.613281 202.859375 C 217.585938 206.160156 206.390625 209.789062 192.839844 211.5 C 192.691406 211.5 192.507812 211.5 192.359375 211.53125 C 191.933594 211.558594 191.511719 211.558594 191.089844 211.589844 C 190.96875 211.589844 190.851562 211.589844 190.726562 211.589844 C 190.214844 211.621094 189.703125 211.621094 189.191406 211.621094 C 189.128906 211.621094 189.070312 211.621094 188.980469 211.621094 C 186.804688 211.648438 184.574219 211.621094 182.277344 211.53125 C 181.734375 211.5 181.191406 211.5 180.648438 211.46875 C 163.328125 210.601562 149.082031 206.308594 138.882812 202.167969 C 134.328125 200.308594 131.15625 196.140625 130.675781 191.28125 C 129.589844 180.78125 128.984375 169.082031 129.316406 156.390625 C 129.5 148.800781 130.011719 141.628906 130.707031 134.910156 C 131.1875 130.289062 134.085938 126.269531 138.28125 124.289062 C 139.609375 123.691406 140.996094 123.03125 142.535156 122.398438 C 142.867188 122.28125 143.199219 122.128906 143.53125 121.980469 C 145.433594 121.199219 147.515625 120.417969 149.6875 119.667969 C 150.019531 119.550781 150.351562 119.429688 150.714844 119.339844 C 151.042969 119.21875 151.40625 119.101562 151.738281 119.007812 C 152.070312 118.890625 152.402344 118.800781 152.734375 118.679688 C 152.765625 118.679688 152.765625 118.679688 152.796875 118.648438 C 153.128906 118.53125 153.488281 118.441406 153.820312 118.320312 C 154.183594 118.199219 154.578125 118.082031 154.96875 117.988281 C 155.691406 117.78125 156.386719 117.570312 157.140625 117.390625 C 157.53125 117.269531 157.957031 117.179688 158.347656 117.058594 C 158.648438 116.96875 158.980469 116.910156 159.285156 116.820312 C 159.859375 116.667969 160.429688 116.550781 161.003906 116.398438 C 161.699219 116.21875 162.390625 116.070312 163.117188 115.917969 C 163.480469 115.832031 163.871094 115.769531 164.234375 115.679688 C 165.53125 115.410156 166.828125 115.167969 168.15625 114.960938 C 168.578125 114.898438 169.03125 114.808594 169.453125 114.75 C 169.875 114.691406 170.296875 114.628906 170.722656 114.570312 C 170.75 114.570312 170.78125 114.570312 170.8125 114.570312 C 171.203125 114.507812 171.597656 114.449219 171.988281 114.417969 C 172.046875 114.417969 172.078125 114.417969 172.140625 114.390625 C 172.683594 114.332031 173.253906 114.238281 173.800781 114.179688 C 173.828125 114.179688 173.890625 114.179688 173.917969 114.179688 C 174.433594 114.121094 174.914062 114.058594 175.429688 114 C 175.609375 113.96875 175.789062 113.96875 175.941406 113.941406 C 176.457031 113.878906 176.96875 113.851562 177.480469 113.789062 C 177.601562 113.789062 177.691406 113.757812 177.8125 113.757812 C 178.175781 113.730469 178.535156 113.699219 178.898438 113.667969 C 179.261719 113.640625 179.625 113.609375 180.015625 113.582031 C 180.558594 113.550781 181.132812 113.519531 181.707031 113.488281 C 182.21875 113.460938 182.730469 113.429688 183.273438 113.429688 L 183.304688 113.429688 C 183.9375 113.398438 184.574219 113.398438 185.234375 113.371094 L 185.265625 113.371094 C 185.898438 113.371094 186.566406 113.339844 187.226562 113.339844 L 187.890625 113.339844 C 188.527344 113.339844 189.160156 113.339844 189.792969 113.371094 C 190.246094 113.371094 190.699219 113.398438 191.152344 113.398438 C 196.039062 113.582031 200.6875 114.03125 205.0625 114.71875 C 218.371094 116.820312 229.113281 120.898438 236.539062 124.441406 C 239.042969 125.640625 241.066406 127.53125 242.421875 129.871094 C 243.238281 131.28125 243.78125 132.808594 244.054688 134.460938 C 244.113281 134.941406 244.203125 135.390625 244.265625 135.871094 C 244.324219 136.351562 244.414062 136.832031 244.476562 137.308594 L 234.335938 139.679688 C 234.335938 139.589844 234.304688 139.5 234.304688 139.410156 C 234.605469 141.691406 234.847656 144.03125 235.089844 146.398438 "/>
<path style=" stroke:none;fill-rule:nonzero;fill:rgb(91.758728%,37.249756%,32.159424%);fill-opacity:1;" d="M 233.609375 135.539062 C 233.339844 134.398438 233.039062 133.351562 232.707031 132.390625 C 234.394531 131.941406 236.054688 131.488281 237.746094 131.007812 C 227.878906 133.289062 216.5 135.179688 203.855469 135.960938 C 174.734375 137.757812 150.351562 133.109375 133.332031 128.25 C 150.289062 130.46875 170.296875 131.699219 192.601562 130.648438 C 203.734375 130.109375 214.148438 129.058594 223.773438 127.710938 C 226.277344 127.351562 226.851562 124.019531 224.648438 122.851562 C 223.410156 122.191406 222.324219 121.679688 221.449219 121.257812 C 211.070312 116.460938 200.566406 114.960938 188.3125 113.21875 C 188.285156 113.21875 188.195312 113.191406 188.164062 113.191406 C 195.015625 113.460938 200.75 114.148438 205.0625 114.808594 C 205.0625 114.808594 221.417969 117.359375 236.539062 124.53125 C 239.011719 125.699219 241.003906 127.558594 242.363281 129.839844 C 242.453125 129.808594 242.542969 129.78125 242.632812 129.78125 L 244.476562 137.398438 C 245.167969 142.257812 245.683594 147.417969 246.015625 152.851562 C 246.828125 167.488281 245.800781 180.601562 244.113281 191.667969 C 243.386719 196.289062 240.339844 200.191406 235.996094 201.960938 C 226.007812 206.039062 211.128906 210.660156 192.839844 211.5 C 206.421875 209.789062 217.585938 206.160156 225.613281 202.859375 C 229.960938 201.089844 233.039062 197.191406 233.730469 192.570312 C 235.453125 181.5 236.449219 168.359375 235.632812 153.691406 C 235.363281 148.800781 234.910156 144.148438 234.304688 139.710938 M 234.304688 139.710938 C 234.183594 138.449219 233.945312 137.039062 233.609375 135.539062 "/>
<g clip-path="url(#clip1)" clip-rule="nonzero">
<path style=" stroke:none;fill-rule:nonzero;fill:rgb(19.999695%,19.999695%,19.999695%);fill-opacity:1;" d="M 235.632812 201.148438 C 232.042969 202.621094 228.421875 203.910156 224.738281 205.050781 C 220.484375 206.371094 216.199219 207.449219 211.851562 208.320312 C 211.792969 208.320312 211.730469 208.351562 211.671875 208.351562 C 205.457031 209.582031 199.117188 210.332031 192.75 210.628906 C 192.628906 210.628906 192.480469 210.628906 192.359375 210.660156 L 192.296875 210.660156 C 191.875 210.691406 191.484375 210.691406 191.03125 210.71875 C 190.941406 210.71875 190.820312 210.71875 190.699219 210.71875 C 190.214844 210.75 189.734375 210.75 189.21875 210.75 L 189.128906 210.75 C 189.097656 210.75 189.039062 210.75 189.007812 210.75 L 188.980469 210.75 C 186.835938 210.78125 184.601562 210.75 182.339844 210.660156 C 181.824219 210.628906 181.3125 210.628906 180.800781 210.601562 L 180.738281 210.601562 C 166.496094 209.878906 152.554688 206.757812 139.246094 201.359375 C 135.535156 199.859375 132.847656 196.710938 131.882812 192.929688 C 148.8125 199.980469 166.648438 203.757812 184.964844 204.089844 C 185.839844 204.121094 186.714844 204.121094 187.589844 204.121094 C 206.421875 204.121094 225.433594 200.339844 242.875 193.167969 C 241.789062 196.738281 239.132812 199.710938 235.632812 201.148438 Z M 236.71875 254.25 C 236.71875 254.308594 236.71875 254.398438 236.597656 254.398438 C 236.476562 254.429688 236.449219 254.339844 236.449219 254.28125 L 226.007812 206.519531 C 228.332031 205.800781 230.625 204.988281 232.886719 204.121094 Z M 209.980469 236.128906 C 209.921875 237.269531 209.078125 237.75 208.351562 237.808594 C 207.628906 237.871094 206.722656 237.539062 206.480469 236.398438 L 201.683594 211.710938 C 204.820312 211.351562 207.929688 210.871094 211.007812 210.300781 Z M 170.238281 259.648438 C 170.054688 260.488281 169.394531 260.730469 168.847656 260.699219 C 168.277344 260.640625 167.671875 260.28125 167.640625 259.441406 L 166.707031 210.898438 C 170.960938 211.589844 175.25 212.039062 179.59375 212.308594 Z M 144.285156 242.28125 L 147.996094 206.429688 C 149.445312 206.910156 150.925781 207.332031 152.375 207.75 Z M 138.671875 125.101562 C 140.058594 124.441406 141.480469 123.808594 142.898438 123.238281 C 143.109375 123.148438 143.347656 123.058594 143.5625 122.96875 L 143.863281 122.851562 C 145.976562 121.980469 147.964844 121.230469 149.988281 120.539062 C 150.320312 120.417969 150.652344 120.300781 151.015625 120.210938 C 151.347656 120.089844 151.679688 120 152.039062 119.878906 C 152.222656 119.820312 152.402344 119.757812 152.585938 119.699219 L 153.035156 119.550781 C 153.035156 119.550781 153.035156 119.550781 153.066406 119.550781 C 153.097656 119.550781 153.128906 119.550781 153.128906 119.519531 C 153.457031 119.429688 153.792969 119.308594 154.125 119.21875 C 154.484375 119.101562 154.847656 119.007812 155.238281 118.890625 C 155.933594 118.679688 156.65625 118.46875 157.382812 118.289062 C 157.773438 118.167969 158.199219 118.082031 158.589844 117.960938 L 159.523438 117.71875 C 160.097656 117.570312 160.671875 117.449219 161.246094 117.300781 C 161.9375 117.148438 162.632812 116.96875 163.355469 116.820312 C 163.71875 116.730469 164.113281 116.667969 164.472656 116.582031 C 165.710938 116.339844 167.007812 116.070312 168.367188 115.859375 C 168.789062 115.800781 169.242188 115.710938 169.664062 115.648438 C 170.085938 115.589844 170.507812 115.53125 170.933594 115.46875 L 170.992188 115.46875 L 172.199219 115.289062 C 172.230469 115.289062 172.230469 115.289062 172.289062 115.289062 C 172.832031 115.230469 173.375 115.140625 173.980469 115.082031 L 174.070312 115.082031 C 174.554688 115.019531 175.066406 114.960938 175.578125 114.929688 L 176.09375 114.871094 C 176.605469 114.808594 177.089844 114.78125 177.632812 114.71875 C 177.722656 114.71875 177.8125 114.691406 177.933594 114.691406 C 178.296875 114.660156 178.628906 114.628906 179.019531 114.601562 C 179.382812 114.570312 179.714844 114.539062 180.105469 114.507812 C 180.648438 114.480469 181.191406 114.449219 181.765625 114.417969 C 182.277344 114.390625 182.792969 114.359375 183.273438 114.359375 L 183.367188 114.359375 C 184 114.332031 184.632812 114.332031 185.265625 114.300781 C 185.265625 114.300781 185.296875 114.300781 185.328125 114.300781 C 185.960938 114.300781 186.625 114.269531 187.257812 114.269531 L 187.921875 114.269531 C 188.554688 114.269531 189.191406 114.269531 189.824219 114.300781 C 190.277344 114.300781 190.726562 114.332031 191.179688 114.332031 C 195.769531 114.480469 200.414062 114.929688 204.972656 115.648438 C 215.777344 117.359375 226.277344 120.601562 236.207031 125.28125 C 238.167969 126.210938 239.796875 127.589844 241.035156 129.332031 C 222.777344 133.800781 204.007812 135.839844 185.265625 135.332031 C 168.277344 134.878906 151.378906 132.332031 134.992188 127.800781 C 135.988281 126.71875 137.253906 125.789062 138.671875 125.101562 Z M 243.449219 136.648438 C 227.515625 140.460938 211.160156 142.5 194.832031 142.710938 C 173.527344 143.007812 152.28125 140.191406 131.671875 134.398438 C 131.941406 132.570312 132.667969 130.832031 133.691406 129.332031 C 150.441406 134.039062 167.765625 136.648438 185.144531 137.128906 C 187.046875 137.191406 188.980469 137.21875 190.878906 137.21875 C 208.082031 137.21875 225.222656 135.121094 241.941406 130.980469 C 242.511719 132.148438 242.9375 133.378906 243.148438 134.667969 L 243.359375 136.082031 C 243.386719 136.257812 243.417969 136.46875 243.449219 136.648438 Z M 243.296875 191.039062 C 224.949219 198.78125 204.820312 202.648438 184.964844 202.289062 C 166.527344 201.929688 148.539062 198.089844 131.519531 190.832031 C 130.371094 179.398438 129.921875 167.820312 130.222656 156.417969 C 130.402344 149.699219 130.824219 142.917969 131.492188 136.230469 C 151.226562 141.75 171.535156 144.570312 191.90625 144.570312 C 192.902344 144.570312 193.867188 144.570312 194.863281 144.539062 C 211.28125 144.332031 227.695312 142.289062 243.691406 138.449219 C 244.355469 143.21875 244.808594 148.082031 245.078125 152.851562 C 245.800781 165.539062 245.199219 178.378906 243.296875 191.039062 Z M 245.109375 190.980469 C 247.007812 178.289062 247.613281 165.449219 246.890625 152.757812 C 246.585938 147.601562 246.074219 142.378906 245.351562 137.21875 C 245.289062 136.738281 245.199219 136.257812 245.140625 135.78125 L 244.929688 134.371094 C 244.65625 132.660156 244.082031 131.039062 243.238281 129.539062 C 243.238281 129.507812 243.207031 129.507812 243.207031 129.480469 C 241.757812 126.960938 239.585938 124.949219 236.929688 123.691406 C 226.851562 118.917969 216.167969 115.621094 205.214844 113.910156 C 200.597656 113.191406 195.859375 112.738281 191.210938 112.558594 C 190.757812 112.53125 190.304688 112.53125 189.855469 112.53125 C 189.21875 112.53125 188.585938 112.5 187.921875 112.5 L 187.257812 112.5 C 186.59375 112.5 185.929688 112.5 185.234375 112.53125 C 184.574219 112.53125 183.9375 112.558594 183.335938 112.589844 L 183.246094 112.589844 C 182.703125 112.621094 182.1875 112.621094 181.675781 112.648438 C 181.101562 112.679688 180.527344 112.710938 179.953125 112.738281 C 179.59375 112.769531 179.230469 112.800781 178.871094 112.832031 C 178.507812 112.859375 178.144531 112.890625 177.8125 112.917969 C 177.691406 112.917969 177.539062 112.949219 177.449219 112.949219 C 176.9375 113.007812 176.425781 113.039062 175.910156 113.101562 L 175.335938 113.101562 C 174.824219 113.160156 174.3125 113.21875 173.828125 113.28125 L 173.738281 113.28125 C 173.738281 113.28125 173.707031 113.28125 173.679688 113.28125 C 173.105469 113.339844 172.5625 113.429688 172.019531 113.488281 C 171.957031 113.488281 171.898438 113.488281 171.867188 113.519531 L 170.691406 113.667969 L 170.601562 113.667969 C 170.179688 113.730469 169.753906 113.789062 169.332031 113.851562 C 168.878906 113.910156 168.457031 114 168.003906 114.058594 C 166.648438 114.300781 165.289062 114.539062 164.050781 114.808594 C 163.660156 114.898438 163.296875 114.960938 162.90625 115.050781 C 162.179688 115.199219 161.457031 115.351562 160.761719 115.53125 C 160.1875 115.679688 159.585938 115.800781 159.011719 115.949219 L 158.078125 116.191406 C 157.652344 116.308594 157.261719 116.398438 156.839844 116.519531 C 156.085938 116.730469 155.359375 116.941406 154.664062 117.121094 C 154.273438 117.238281 153.882812 117.332031 153.519531 117.449219 C 153.1875 117.539062 152.855469 117.660156 152.492188 117.78125 C 152.464844 117.78125 152.433594 117.808594 152.375 117.808594 L 151.949219 117.929688 C 151.769531 117.988281 151.589844 118.050781 151.378906 118.109375 C 151.042969 118.230469 150.683594 118.320312 150.351562 118.441406 C 150.019531 118.558594 149.65625 118.679688 149.324219 118.800781 C 147.273438 119.488281 145.25 120.269531 143.109375 121.140625 L 142.808594 121.257812 C 142.566406 121.351562 142.355469 121.441406 142.113281 121.558594 C 140.695312 122.160156 139.246094 122.789062 137.828125 123.449219 C 135.746094 124.410156 133.996094 125.878906 132.605469 127.648438 C 132.546875 127.710938 132.484375 127.769531 132.457031 127.859375 C 131.039062 129.898438 130.070312 132.269531 129.800781 134.820312 C 129.046875 141.960938 128.5625 149.191406 128.382812 156.359375 C 128.082031 167.96875 128.53125 179.757812 129.738281 191.371094 C 130.285156 196.558594 133.632812 201 138.519531 202.980469 C 141.054688 204.03125 143.652344 204.960938 146.214844 205.832031 L 142.261719 244.320312 C 142.171875 245.21875 142.746094 245.96875 143.652344 246.121094 C 143.742188 246.148438 143.863281 246.148438 143.953125 246.148438 C 144.707031 246.148438 145.371094 245.640625 145.550781 244.859375 L 154.152344 208.230469 C 157.714844 209.191406 161.304688 209.96875 164.925781 210.601562 L 165.863281 259.46875 C 165.894531 261.121094 167.070312 262.351562 168.699219 262.5 C 168.789062 262.5 168.910156 262.5 169 262.5 C 170.507812 262.5 171.714844 261.507812 172.019531 260.007812 L 181.402344 212.398438 C 181.707031 212.398438 181.976562 212.429688 182.277344 212.429688 C 183.910156 212.488281 185.539062 212.519531 187.105469 212.519531 C 187.742188 212.519531 188.375 212.519531 189.007812 212.488281 C 189.097656 212.488281 189.191406 212.488281 189.21875 212.488281 L 189.28125 212.488281 C 189.792969 212.488281 190.277344 212.460938 190.757812 212.460938 C 190.878906 212.460938 191.03125 212.460938 191.152344 212.460938 C 191.574219 212.460938 192.027344 212.429688 192.417969 212.398438 L 192.480469 212.398438 C 192.628906 212.398438 192.78125 212.398438 192.902344 212.371094 C 195.253906 212.25 197.578125 212.101562 199.902344 211.859375 L 204.730469 236.699219 C 205.0625 238.441406 206.480469 239.582031 208.203125 239.582031 C 208.292969 239.582031 208.414062 239.582031 208.503906 239.582031 C 210.375 239.429688 211.730469 238.050781 211.792969 236.191406 L 212.847656 209.941406 C 216.710938 209.160156 220.515625 208.199219 224.285156 207.058594 L 234.699219 254.667969 C 234.910156 255.601562 235.664062 256.199219 236.570312 256.199219 C 236.660156 256.199219 236.78125 256.199219 236.871094 256.167969 C 237.925781 256.019531 238.621094 255.148438 238.53125 254.101562 L 234.636719 203.460938 C 235.210938 203.25 235.753906 203.007812 236.328125 202.800781 C 240.761719 201 244.023438 196.980469 244.898438 192.300781 C 245.261719 192.058594 245.410156 191.609375 245.230469 191.191406 C 245.199219 191.128906 245.167969 191.039062 245.109375 190.980469 "/>
</g>
</g>
</svg>
