<?xml version="1.0" encoding="UTF-8"?>
<svg xmlns="http://www.w3.org/2000/svg" xmlns:xlink="http://www.w3.org/1999/xlink" width="375pt" height="374.999991pt" viewBox="0 0 375 374.999991" version="1.2">
<defs>
<clipPath id="clip1">
  <path d="M 112.5 143 L 262.5 143 L 262.5 246.9375 L 112.5 246.9375 Z M 112.5 143 "/>
</clipPath>
<clipPath id="clip2">
  <path d="M 131 128.4375 L 244 128.4375 L 244 212 L 131 212 Z M 131 128.4375 "/>
</clipPath>
<clipPath id="clip3">
  <path d="M 112.5 131.84375 L 262.492188 131.84375 L 262.492188 246.9375 L 112.5 246.9375 Z M 112.5 131.84375 "/>
</clipPath>
</defs>
<g id="surface1">
<path style=" stroke:none;fill-rule:nonzero;fill:rgb(100%,98.81897%,96.078491%);fill-opacity:1;" d="M 86.726562 86.726562 L 288.273438 86.726562 L 288.273438 288.273438 L 86.726562 288.273438 Z M 86.726562 86.726562 "/>
<path style=" stroke:none;fill-rule:nonzero;fill:rgb(91.758728%,37.249756%,32.159424%);fill-opacity:1;" d="M 285.921875 285.921875 L 290.625 285.921875 L 290.625 290.625 L 285.921875 290.625 Z M 84.375 89.078125 L 89.078125 89.078125 L 89.078125 285.921875 L 84.375 285.921875 Z M 84.375 285.921875 L 89.078125 285.921875 L 89.078125 290.625 L 84.375 290.625 Z M 285.921875 89.078125 L 290.625 89.078125 L 290.625 285.921875 L 285.921875 285.921875 Z M 89.078125 285.921875 L 285.921875 285.921875 L 285.921875 290.625 L 89.078125 290.625 Z M 285.921875 84.375 L 290.625 84.375 L 290.625 89.078125 L 285.921875 89.078125 Z M 84.375 84.375 L 89.078125 84.375 L 89.078125 89.078125 L 84.375 89.078125 Z M 89.078125 84.375 L 285.921875 84.375 L 285.921875 89.078125 L 89.078125 89.078125 Z M 89.078125 84.375 "/>
<g clip-path="url(#clip1)" clip-rule="nonzero">
<path style=" stroke:none;fill-rule:nonzero;fill:rgb(97.24884%,74.119568%,3.919983%);fill-opacity:1;" d="M 249.550781 234.25 L 125.4375 234.25 L 125.4375 156.5 L 249.550781 156.5 Z M 112.917969 143.902344 L 112.917969 246.847656 L 262.070312 246.847656 L 262.070312 143.902344 Z M 199.296875 171.851562 C 211.550781 171.851562 221.597656 181.339844 222.585938 193.414062 L 197.167969 215.785156 L 176.035156 193.039062 C 177.203125 181.144531 187.171875 171.851562 199.296875 171.851562 "/>
</g>
<path style=" stroke:none;fill-rule:nonzero;fill:rgb(100%,100%,100%);fill-opacity:1;" d="M 131.28125 162.800781 C 131.28125 162.570312 131.46875 162.382812 131.699219 162.382812 L 243.289062 162.382812 C 243.523438 162.382812 243.707031 162.570312 243.707031 162.800781 L 243.707031 227.949219 C 243.707031 228.183594 243.523438 228.367188 243.289062 228.367188 L 131.699219 228.367188 C 131.46875 228.367188 131.28125 228.183594 131.28125 227.949219 Z M 125.4375 234.25 L 249.550781 234.25 L 249.550781 156.5 L 125.4375 156.5 L 125.4375 234.25 "/>
<path style=" stroke:none;fill-rule:nonzero;fill:rgb(98.81897%,87.838745%,70.199585%);fill-opacity:1;" d="M 222.585938 193.414062 L 197.167969 215.785156 L 176.035156 193.039062 L 166.554688 182.828125 L 131.699219 211.996094 L 131.699219 227.949219 L 243.289062 227.949219 L 243.289062 203.5625 L 226.652344 189.835938 L 222.585938 193.414062 "/>
<g clip-path="url(#clip2)" clip-rule="nonzero">
<path style=" stroke:none;fill-rule:nonzero;fill:rgb(47.44873%,82.749939%,96.469116%);fill-opacity:1;" d="M 190.90625 131.917969 C 190.90625 130.023438 189.378906 128.484375 187.496094 128.484375 C 185.609375 128.484375 184.082031 130.023438 184.082031 131.917969 C 184.082031 131.921875 184.082031 131.921875 184.082031 131.921875 C 184.085938 132.4375 184.199219 132.925781 184.402344 133.363281 C 184.945312 134.539062 186.125 135.351562 187.496094 135.351562 C 188.867188 135.351562 190.042969 134.539062 190.585938 133.363281 C 190.789062 132.925781 190.90625 132.4375 190.90625 131.921875 C 190.90625 131.921875 190.90625 131.921875 190.90625 131.917969 Z M 243.289062 162.800781 L 243.289062 203.5625 L 226.652344 189.835938 L 222.585938 193.414062 C 221.597656 181.339844 211.550781 171.851562 199.296875 171.851562 C 187.171875 171.851562 177.203125 181.144531 176.035156 193.039062 L 166.554688 182.828125 L 131.699219 211.996094 L 131.699219 162.800781 L 243.289062 162.800781 "/>
</g>
<g clip-path="url(#clip3)" clip-rule="nonzero">
<path style=" stroke:none;fill-rule:nonzero;fill:rgb(22.349548%,21.569824%,23.529053%);fill-opacity:1;" d="M 242.875 163.222656 L 242.875 202.675781 L 226.917969 189.507812 C 226.757812 189.382812 226.53125 189.382812 226.378906 189.519531 L 222.921875 192.558594 C 222.265625 186.90625 219.636719 181.6875 215.453125 177.792969 C 211.042969 173.691406 205.304688 171.429688 199.296875 171.429688 C 187.308594 171.429688 177.332031 180.253906 175.730469 192.09375 L 166.855469 182.542969 C 166.707031 182.378906 166.457031 182.363281 166.285156 182.507812 L 132.117188 211.101562 L 132.117188 163.222656 Z M 208.648438 227.527344 L 197.765625 215.816406 L 226.660156 190.386719 L 242.875 203.761719 L 242.875 227.527344 Z M 176.472656 192.894531 C 177.722656 181.125 187.496094 172.269531 199.296875 172.269531 C 211.082031 172.269531 221.078125 181.464844 222.15625 193.234375 L 197.195312 215.203125 Z M 132.117188 212.195312 L 166.515625 183.40625 L 207.503906 227.527344 L 132.117188 227.527344 Z M 131.699219 228.367188 L 243.289062 228.367188 C 243.523438 228.367188 243.707031 228.183594 243.707031 227.949219 L 243.707031 162.800781 C 243.707031 162.570312 243.523438 162.382812 243.289062 162.382812 L 131.699219 162.382812 C 131.46875 162.382812 131.28125 162.570312 131.28125 162.800781 L 131.28125 227.949219 C 131.28125 228.183594 131.46875 228.367188 131.699219 228.367188 Z M 173.492188 144.347656 L 173.515625 144.320312 L 201.476562 144.320312 L 201.5 144.347656 L 201.523438 144.320312 L 261.066406 144.320312 L 249.378906 156.082031 L 125.609375 156.082031 L 113.925781 144.320312 L 173.464844 144.320312 Z M 249.96875 234.074219 L 249.96875 156.675781 L 261.65625 144.914062 L 261.65625 245.835938 Z M 125.609375 234.667969 L 249.378906 234.667969 L 261.066406 246.429688 L 113.925781 246.429688 Z M 249.132812 233.828125 L 125.855469 233.828125 L 125.855469 156.921875 L 249.132812 156.921875 Z M 125.019531 156.675781 L 125.019531 234.074219 L 113.335938 245.835938 L 113.335938 144.914062 Z M 262.488281 143.902344 C 262.488281 143.847656 262.480469 143.792969 262.457031 143.742188 C 262.417969 143.636719 262.335938 143.558594 262.230469 143.515625 C 262.179688 143.492188 262.128906 143.480469 262.070312 143.480469 L 202.359375 143.480469 L 202.382812 143.457031 L 191.101562 132.101562 C 191.039062 132.039062 190.972656 131.980469 190.90625 131.921875 C 190.90625 132.4375 190.789062 132.925781 190.585938 133.363281 L 200.640625 143.480469 L 174.347656 143.480469 L 184.402344 133.363281 C 184.199219 132.925781 184.085938 132.4375 184.082031 131.921875 C 184.015625 131.980469 183.949219 132.039062 183.886719 132.101562 L 172.605469 143.457031 L 172.628906 143.480469 L 112.917969 143.480469 C 112.863281 143.480469 112.808594 143.492188 112.757812 143.515625 C 112.65625 143.558594 112.574219 143.636719 112.53125 143.742188 C 112.511719 143.792969 112.5 143.847656 112.5 143.902344 L 112.5 246.847656 C 112.5 246.90625 112.511719 246.960938 112.53125 247.011719 C 112.574219 247.113281 112.65625 247.195312 112.757812 247.238281 C 112.808594 247.257812 112.863281 247.269531 112.917969 247.269531 L 262.070312 247.269531 C 262.128906 247.269531 262.179688 247.257812 262.230469 247.238281 C 262.335938 247.195312 262.417969 247.113281 262.457031 247.011719 C 262.480469 246.960938 262.488281 246.90625 262.488281 246.847656 L 262.488281 143.902344 "/>
</g>
</g>
</svg>
