<?xml version="1.0" encoding="UTF-8"?>
<svg xmlns="http://www.w3.org/2000/svg" xmlns:xlink="http://www.w3.org/1999/xlink" width="375pt" height="374.999991pt" viewBox="0 0 375 374.999991" version="1.2">
<defs>
<clipPath id="clip1">
  <path d="M 117 148.125 L 258 148.125 L 258 205 L 117 205 Z M 117 148.125 "/>
</clipPath>
<clipPath id="clip2">
  <path d="M 241 206 L 253 206 L 253 226.875 L 241 226.875 Z M 241 206 "/>
</clipPath>
<clipPath id="clip3">
  <path d="M 122 206 L 134 206 L 134 226.875 L 122 226.875 Z M 122 206 "/>
</clipPath>
<clipPath id="clip4">
  <path d="M 232 208 L 242 208 L 242 226.875 L 232 226.875 Z M 232 208 "/>
</clipPath>
<clipPath id="clip5">
  <path d="M 133 208 L 143 208 L 143 226.875 L 133 226.875 Z M 133 208 "/>
</clipPath>
<clipPath id="clip6">
  <path d="M 112.5 168 L 262.5 168 L 262.5 214 L 112.5 214 Z M 112.5 168 "/>
</clipPath>
</defs>
<g id="surface1">
<path style=" stroke:none;fill-rule:nonzero;fill:rgb(100%,98.81897%,96.078491%);fill-opacity:1;" d="M 86.726562 86.726562 L 288.273438 86.726562 L 288.273438 288.273438 L 86.726562 288.273438 Z M 86.726562 86.726562 "/>
<path style=" stroke:none;fill-rule:nonzero;fill:rgb(91.758728%,37.249756%,32.159424%);fill-opacity:1;" d="M 285.921875 285.921875 L 290.625 285.921875 L 290.625 290.625 L 285.921875 290.625 Z M 84.375 89.078125 L 89.078125 89.078125 L 89.078125 285.921875 L 84.375 285.921875 Z M 84.375 285.921875 L 89.078125 285.921875 L 89.078125 290.625 L 84.375 290.625 Z M 285.921875 89.078125 L 290.625 89.078125 L 290.625 285.921875 L 285.921875 285.921875 Z M 89.078125 285.921875 L 285.921875 285.921875 L 285.921875 290.625 L 89.078125 290.625 Z M 285.921875 84.375 L 290.625 84.375 L 290.625 89.078125 L 285.921875 89.078125 Z M 84.375 84.375 L 89.078125 84.375 L 89.078125 89.078125 L 84.375 89.078125 Z M 89.078125 84.375 L 285.921875 84.375 L 285.921875 89.078125 L 89.078125 89.078125 Z M 89.078125 84.375 "/>
<g clip-path="url(#clip1)" clip-rule="nonzero">
<path style=" stroke:none;fill-rule:nonzero;fill:rgb(92.158508%,65.489197%,10.978699%);fill-opacity:1;" d="M 257.390625 194.074219 C 257.390625 199.667969 252.851562 204.203125 247.257812 204.203125 L 127.742188 204.203125 C 122.148438 204.203125 117.613281 199.667969 117.613281 194.074219 L 117.613281 158.238281 C 117.613281 152.640625 122.148438 148.105469 127.742188 148.105469 L 247.257812 148.105469 C 252.851562 148.105469 257.390625 152.640625 257.390625 158.238281 L 257.390625 194.074219 "/>
</g>
<g clip-path="url(#clip2)" clip-rule="nonzero">
<path style=" stroke:none;fill-rule:nonzero;fill:rgb(32.159424%,22.349548%,7.058716%);fill-opacity:1;" d="M 252.804688 226.851562 L 246.03125 226.851562 L 241.863281 206.980469 L 252.804688 206.980469 L 252.804688 226.851562 "/>
</g>
<g clip-path="url(#clip3)" clip-rule="nonzero">
<path style=" stroke:none;fill-rule:nonzero;fill:rgb(32.159424%,22.349548%,7.058716%);fill-opacity:1;" d="M 122.195312 226.851562 L 128.96875 226.851562 L 133.136719 206.980469 L 122.195312 206.980469 L 122.195312 226.851562 "/>
</g>
<g clip-path="url(#clip4)" clip-rule="nonzero">
<path style=" stroke:none;fill-rule:nonzero;fill:rgb(24.308777%,16.859436%,7.839966%);fill-opacity:1;" d="M 241.632812 226.511719 L 236.015625 226.511719 L 232.5625 208.683594 L 241.632812 208.683594 L 241.632812 226.511719 "/>
</g>
<g clip-path="url(#clip5)" clip-rule="nonzero">
<path style=" stroke:none;fill-rule:nonzero;fill:rgb(24.308777%,16.859436%,7.839966%);fill-opacity:1;" d="M 133.367188 226.511719 L 138.984375 226.511719 L 142.4375 208.683594 L 133.367188 208.683594 L 133.367188 226.511719 "/>
</g>
<path style=" stroke:none;fill-rule:nonzero;fill:rgb(68.629456%,45.098877%,11.369324%);fill-opacity:1;" d="M 255.210938 169.039062 C 251.550781 169.039062 248.585938 172.003906 248.585938 175.660156 L 248.585938 189.675781 C 248.585938 196.589844 242.574219 202.195312 235.152344 202.195312 L 139.847656 202.195312 C 132.429688 202.195312 126.414062 196.589844 126.414062 189.675781 L 126.414062 175.660156 C 126.414062 172.003906 123.449219 169.039062 119.792969 169.039062 C 116.132812 169.039062 113.167969 172.003906 113.167969 175.660156 L 113.167969 195.1875 C 113.167969 205.121094 121.21875 213.167969 131.148438 213.167969 L 243.851562 213.167969 C 253.78125 213.167969 261.832031 205.121094 261.832031 195.1875 L 261.832031 175.660156 C 261.832031 172.003906 258.867188 169.039062 255.210938 169.039062 "/>
<g clip-path="url(#clip6)" clip-rule="nonzero">
<path style=" stroke:none;fill-rule:nonzero;fill:rgb(32.159424%,22.349548%,7.058716%);fill-opacity:1;" d="M 119.792969 169.582031 C 116.441406 169.582031 113.714844 172.308594 113.714844 175.660156 L 113.714844 195.1875 C 113.714844 204.800781 121.535156 212.625 131.148438 212.625 L 243.851562 212.625 C 253.464844 212.625 261.289062 204.800781 261.289062 195.1875 L 261.289062 175.660156 C 261.289062 172.308594 258.558594 169.582031 255.210938 169.582031 C 251.859375 169.582031 249.132812 172.308594 249.132812 175.660156 L 249.132812 189.675781 C 249.132812 196.878906 242.859375 202.738281 235.152344 202.738281 L 139.847656 202.738281 C 132.140625 202.738281 125.871094 196.878906 125.871094 189.675781 L 125.871094 175.660156 C 125.871094 172.308594 123.140625 169.582031 119.792969 169.582031 Z M 243.851562 213.714844 L 131.148438 213.714844 C 120.933594 213.714844 112.625 205.402344 112.625 195.1875 L 112.625 175.660156 C 112.625 171.707031 115.839844 168.492188 119.792969 168.492188 C 123.742188 168.492188 126.957031 171.707031 126.957031 175.660156 L 126.957031 189.675781 C 126.957031 196.277344 132.742188 201.648438 139.847656 201.648438 L 235.152344 201.648438 C 242.257812 201.648438 248.042969 196.277344 248.042969 189.675781 L 248.042969 175.660156 C 248.042969 171.707031 251.257812 168.492188 255.210938 168.492188 C 259.160156 168.492188 262.375 171.707031 262.375 175.660156 L 262.375 195.1875 C 262.375 205.402344 254.066406 213.714844 243.851562 213.714844 "/>
</g>
<path style=" stroke:none;fill-rule:nonzero;fill:rgb(79.998779%,53.329468%,11.369324%);fill-opacity:1;" d="M 251.511719 197.121094 C 251.511719 201.03125 248.339844 204.203125 244.429688 204.203125 L 130.570312 204.203125 C 126.65625 204.203125 123.488281 201.03125 123.488281 197.121094 L 123.488281 195.304688 C 123.488281 191.390625 126.65625 188.222656 130.570312 188.222656 L 244.429688 188.222656 C 248.339844 188.222656 251.511719 191.390625 251.511719 195.304688 L 251.511719 197.121094 "/>
<path style=" stroke:none;fill-rule:nonzero;fill:rgb(46.269226%,73.329163%,59.609985%);fill-opacity:1;" d="M 156.808594 160.425781 L 156.722656 160.453125 C 155.828125 160.730469 147.890625 163.140625 142.996094 162.625 C 138.101562 163.140625 130.164062 160.730469 129.265625 160.453125 L 129.179688 160.425781 C 128.371094 160.425781 126.957031 167.121094 126.957031 175.382812 C 126.957031 183.644531 128.371094 190.339844 129.179688 190.339844 L 129.265625 190.3125 C 130.164062 190.035156 138.101562 187.625 142.996094 188.140625 C 147.890625 187.625 155.828125 190.035156 156.722656 190.3125 L 156.808594 190.339844 C 157.617188 190.339844 159.035156 183.644531 159.035156 175.382812 C 159.035156 167.121094 157.617188 160.425781 156.808594 160.425781 "/>
<path style=" stroke:none;fill-rule:nonzero;fill:rgb(65.098572%,83.139038%,72.158813%);fill-opacity:1;" d="M 130.335938 175.382812 L 142.996094 166.289062 L 155.65625 175.382812 L 142.996094 184.476562 Z M 142.996094 164.332031 L 127.605469 175.382812 L 142.996094 186.433594 L 158.386719 175.382812 L 142.996094 164.332031 "/>
<path style=" stroke:none;fill-rule:nonzero;fill:rgb(65.098572%,83.139038%,72.158813%);fill-opacity:1;" d="M 134.882812 175.382812 L 142.996094 169.558594 L 151.109375 175.382812 L 142.996094 181.210938 Z M 142.996094 168.300781 L 133.132812 175.382812 L 142.996094 182.464844 L 152.859375 175.382812 L 142.996094 168.300781 "/>
<path style=" stroke:none;fill-rule:nonzero;fill:rgb(25.489807%,53.729248%,45.878601%);fill-opacity:1;" d="M 156.253906 188.410156 L 156.171875 188.386719 C 155.308594 188.144531 147.691406 186.046875 142.996094 186.492188 C 138.300781 186.046875 130.679688 188.144531 129.820312 188.386719 L 129.738281 188.410156 C 128.960938 188.410156 127.605469 182.578125 127.605469 175.382812 C 127.605469 168.1875 128.960938 162.355469 129.738281 162.355469 L 129.820312 162.378906 C 130.679688 162.621094 138.300781 164.722656 142.996094 164.269531 C 147.691406 164.722656 155.308594 162.621094 156.171875 162.378906 L 156.253906 162.355469 C 157.03125 162.355469 158.386719 168.1875 158.386719 175.382812 C 158.386719 182.578125 157.03125 188.410156 156.253906 188.410156 Z M 156.808594 160.425781 L 156.722656 160.453125 C 155.828125 160.730469 147.890625 163.140625 142.996094 162.625 C 138.101562 163.140625 130.164062 160.730469 129.265625 160.453125 L 129.179688 160.425781 C 128.371094 160.425781 126.957031 167.121094 126.957031 175.382812 C 126.957031 183.644531 128.371094 190.339844 129.179688 190.339844 L 129.265625 190.3125 C 130.164062 190.035156 138.101562 187.625 142.996094 188.140625 C 147.890625 187.625 155.828125 190.035156 156.722656 190.3125 L 156.808594 190.339844 C 157.617188 190.339844 159.035156 183.644531 159.035156 175.382812 C 159.035156 167.121094 157.617188 160.425781 156.808594 160.425781 "/>
<path style=" stroke:none;fill-rule:nonzero;fill:rgb(52.159119%,29.798889%,10.5896%);fill-opacity:1;" d="M 169.371094 168.09375 L 169.304688 168.117188 C 168.589844 168.339844 162.277344 170.253906 158.386719 169.84375 C 154.496094 170.253906 148.183594 168.339844 147.46875 168.117188 L 147.402344 168.09375 C 146.757812 168.09375 145.632812 173.421875 145.632812 179.988281 C 145.632812 186.558594 146.757812 191.886719 147.402344 191.886719 L 147.46875 191.863281 C 148.183594 191.640625 154.496094 189.726562 158.386719 190.136719 C 162.277344 189.726562 168.589844 191.640625 169.304688 191.863281 L 169.371094 191.886719 C 170.015625 191.886719 171.140625 186.558594 171.140625 179.988281 C 171.140625 173.421875 170.015625 168.09375 169.371094 168.09375 "/>
<path style=" stroke:none;fill-rule:nonzero;fill:rgb(62.748718%,42.749023%,28.62854%);fill-opacity:1;" d="M 148.316406 179.988281 L 158.386719 172.757812 L 168.453125 179.988281 L 158.386719 187.21875 Z M 158.386719 171.199219 L 146.148438 179.988281 L 158.386719 188.777344 L 170.625 179.988281 L 158.386719 171.199219 "/>
<path style=" stroke:none;fill-rule:nonzero;fill:rgb(62.748718%,42.749023%,28.62854%);fill-opacity:1;" d="M 151.933594 179.988281 L 158.386719 175.355469 L 164.839844 179.988281 L 158.386719 184.621094 Z M 158.386719 174.359375 L 150.542969 179.988281 L 158.386719 185.621094 L 166.230469 179.988281 L 158.386719 174.359375 "/>
<path style=" stroke:none;fill-rule:nonzero;fill:rgb(47.059631%,27.059937%,9.799194%);fill-opacity:1;" d="M 168.929688 190.347656 L 168.863281 190.328125 C 168.179688 190.136719 162.121094 188.46875 158.386719 188.824219 C 154.652344 188.46875 148.59375 190.136719 147.910156 190.328125 L 147.84375 190.347656 C 147.226562 190.347656 146.148438 185.710938 146.148438 179.988281 C 146.148438 174.269531 147.226562 169.628906 147.84375 169.628906 L 147.910156 169.648438 C 148.59375 169.84375 154.652344 171.511719 158.386719 171.152344 C 162.121094 171.511719 168.179688 169.84375 168.863281 169.648438 L 168.929688 169.628906 C 169.546875 169.628906 170.625 174.269531 170.625 179.988281 C 170.625 185.710938 169.546875 190.347656 168.929688 190.347656 Z M 169.371094 168.09375 L 169.304688 168.117188 C 168.589844 168.339844 162.277344 170.253906 158.386719 169.84375 C 154.496094 170.253906 148.183594 168.339844 147.46875 168.117188 L 147.402344 168.09375 C 146.757812 168.09375 145.632812 173.421875 145.632812 179.988281 C 145.632812 186.558594 146.757812 191.886719 147.402344 191.886719 L 147.46875 191.863281 C 148.183594 191.640625 154.496094 189.726562 158.386719 190.136719 C 162.277344 189.726562 168.589844 191.640625 169.304688 191.863281 L 169.371094 191.886719 C 170.015625 191.886719 171.140625 186.558594 171.140625 179.988281 C 171.140625 173.421875 170.015625 168.09375 169.371094 168.09375 "/>
</g>
</svg>
