<?xml version="1.0" encoding="UTF-8"?>
<svg xmlns="http://www.w3.org/2000/svg" xmlns:xlink="http://www.w3.org/1999/xlink" width="375pt" height="374.999991pt" viewBox="0 0 375 374.999991" version="1.2">
<defs>
<clipPath id="clip1">
  <path d="M 119 112.5 L 208 112.5 L 208 255 L 119 255 Z M 119 112.5 "/>
</clipPath>
<clipPath id="clip2">
  <path d="M 207 112.5 L 256 112.5 L 256 255 L 207 255 Z M 207 112.5 "/>
</clipPath>
<clipPath id="clip3">
  <path d="M 119 112.5 L 256 112.5 L 256 209 L 119 209 Z M 119 112.5 "/>
</clipPath>
<clipPath id="clip4">
  <path d="M 118.96875 112.5 L 256.21875 112.5 L 256.21875 262.5 L 118.96875 262.5 Z M 118.96875 112.5 "/>
</clipPath>
</defs>
<g id="surface1">
<path style=" stroke:none;fill-rule:nonzero;fill:rgb(100%,98.81897%,96.078491%);fill-opacity:1;" d="M 86.726562 86.726562 L 288.273438 86.726562 L 288.273438 288.273438 L 86.726562 288.273438 Z M 86.726562 86.726562 "/>
<path style=" stroke:none;fill-rule:nonzero;fill:rgb(91.758728%,37.249756%,32.159424%);fill-opacity:1;" d="M 285.921875 285.921875 L 290.625 285.921875 L 290.625 290.625 L 285.921875 290.625 Z M 84.375 89.078125 L 89.078125 89.078125 L 89.078125 285.921875 L 84.375 285.921875 Z M 84.375 285.921875 L 89.078125 285.921875 L 89.078125 290.625 L 84.375 290.625 Z M 285.921875 89.078125 L 290.625 89.078125 L 290.625 285.921875 L 285.921875 285.921875 Z M 89.078125 285.921875 L 285.921875 285.921875 L 285.921875 290.625 L 89.078125 290.625 Z M 285.921875 84.375 L 290.625 84.375 L 290.625 89.078125 L 285.921875 89.078125 Z M 84.375 84.375 L 89.078125 84.375 L 89.078125 89.078125 L 84.375 89.078125 Z M 89.078125 84.375 L 285.921875 84.375 L 285.921875 89.078125 L 89.078125 89.078125 Z M 89.078125 84.375 "/>
<g clip-path="url(#clip1)" clip-rule="nonzero">
<path style=" stroke:none;fill-rule:nonzero;fill:rgb(98.81897%,87.838745%,70.199585%);fill-opacity:1;" d="M 207.898438 254.503906 L 119.382812 254.503906 L 119.382812 112.957031 L 207.898438 112.957031 L 207.898438 254.503906 "/>
</g>
<g clip-path="url(#clip2)" clip-rule="nonzero">
<path style=" stroke:none;fill-rule:nonzero;fill:rgb(97.24884%,74.119568%,3.919983%);fill-opacity:1;" d="M 207.898438 254.269531 L 255.996094 254.269531 L 255.996094 208.605469 L 207.898438 208.605469 Z M 255.996094 112.957031 L 255.996094 162.707031 L 207.898438 162.707031 L 207.898438 112.957031 L 255.996094 112.957031 "/>
</g>
<g clip-path="url(#clip3)" clip-rule="nonzero">
<path style=" stroke:none;fill-rule:nonzero;fill:rgb(47.44873%,82.749939%,96.469116%);fill-opacity:1;" d="M 255.988281 112.957031 L 119.214844 112.957031 L 119.214844 116.808594 L 255.988281 116.808594 Z M 255.996094 162.824219 L 255.996094 208.488281 L 207.898438 208.488281 L 207.898438 162.824219 L 255.996094 162.824219 "/>
</g>
<g clip-path="url(#clip4)" clip-rule="nonzero">
<path style=" stroke:none;fill-rule:nonzero;fill:rgb(22.349548%,21.569824%,23.529053%);fill-opacity:1;" d="M 241.921875 215.167969 L 241.921875 215.546875 C 241.921875 216.601562 241.0625 217.460938 240.003906 217.460938 L 223.894531 217.460938 C 222.832031 217.460938 221.972656 216.601562 221.972656 215.546875 L 221.972656 215.167969 C 221.972656 214.109375 222.832031 213.253906 223.894531 213.253906 L 240.003906 213.253906 C 241.0625 213.253906 241.921875 214.109375 241.921875 215.167969 Z M 241.921875 169.269531 L 241.921875 169.648438 C 241.921875 170.707031 241.0625 171.566406 240.003906 171.566406 L 223.894531 171.566406 C 222.832031 171.566406 221.972656 170.707031 221.972656 169.648438 L 221.972656 169.269531 C 221.972656 168.214844 222.832031 167.355469 223.894531 167.355469 L 240.003906 167.355469 C 241.0625 167.355469 241.921875 168.214844 241.921875 169.269531 Z M 221.972656 123.753906 L 221.972656 123.375 C 221.972656 122.316406 222.832031 121.457031 223.894531 121.457031 L 240.003906 121.457031 C 241.0625 121.457031 241.921875 122.316406 241.921875 123.375 L 241.921875 123.753906 C 241.921875 124.808594 241.0625 125.667969 240.003906 125.667969 L 223.894531 125.667969 C 222.832031 125.667969 221.972656 124.808594 221.972656 123.753906 Z M 196.953125 204.628906 L 196.953125 166.683594 C 196.953125 165.628906 197.816406 164.769531 198.875 164.769531 L 199.253906 164.769531 C 200.3125 164.769531 201.175781 165.628906 201.175781 166.683594 L 201.175781 204.628906 C 201.175781 205.683594 200.3125 206.542969 199.253906 206.542969 L 198.875 206.542969 C 197.816406 206.542969 196.953125 205.683594 196.953125 204.628906 Z M 251.53125 254.085938 C 251.527344 254.085938 251.523438 254.085938 251.519531 254.085938 L 240.191406 254.085938 C 240.1875 254.085938 240.179688 254.085938 240.175781 254.085938 L 208.3125 254.085938 L 208.3125 209.019531 L 255.582031 209.019531 L 255.582031 254.085938 Z M 119.800781 117.226562 L 207.480469 117.226562 L 207.480469 254.085938 L 135.207031 254.085938 C 135.203125 254.085938 135.195312 254.085938 135.191406 254.085938 L 123.863281 254.085938 C 123.859375 254.085938 123.855469 254.085938 123.851562 254.085938 L 119.800781 254.085938 Z M 255.582031 113.371094 L 255.582031 116.394531 L 119.800781 116.394531 L 119.800781 113.371094 Z M 208.3125 163.125 L 255.582031 163.125 L 255.582031 208.191406 L 208.3125 208.191406 Z M 255.582031 117.226562 L 255.582031 162.292969 L 208.3125 162.292969 L 208.3125 117.226562 Z M 256 112.539062 L 119.382812 112.539062 C 119.15625 112.539062 118.96875 112.726562 118.96875 112.957031 L 118.96875 254.503906 C 118.96875 254.730469 119.15625 254.917969 119.382812 254.917969 L 123.445312 254.917969 L 123.445312 262.054688 C 123.445312 262.285156 123.632812 262.46875 123.863281 262.46875 L 129.246094 262.46875 C 129.371094 262.46875 129.492188 262.410156 129.570312 262.3125 L 135.390625 254.917969 L 239.992188 254.917969 L 245.8125 262.3125 C 245.890625 262.410156 246.011719 262.46875 246.140625 262.46875 L 251.519531 262.46875 C 251.75 262.46875 251.9375 262.285156 251.9375 262.054688 L 251.9375 254.917969 L 256 254.917969 C 256.230469 254.917969 256.414062 254.730469 256.414062 254.503906 L 256.414062 112.957031 C 256.414062 112.726562 256.230469 112.539062 256 112.539062 "/>
</g>
</g>
</svg>
