<?xml version="1.0" encoding="UTF-8"?>
<svg xmlns="http://www.w3.org/2000/svg" xmlns:xlink="http://www.w3.org/1999/xlink" width="375pt" height="374.999991pt" viewBox="0 0 375 374.999991" version="1.2">
<defs>
<clipPath id="clip1">
  <path d="M 113.253906 131 L 232.539062 131 L 232.539062 261.824219 L 113.253906 261.824219 Z M 113.253906 131 "/>
</clipPath>
<clipPath id="clip2">
  <path d="M 112.65625 112.773438 L 262.34375 112.773438 L 262.34375 261.554688 L 112.65625 261.554688 Z M 112.65625 112.773438 "/>
</clipPath>
</defs>
<g id="surface1">
<path style=" stroke:none;fill-rule:nonzero;fill:rgb(100%,98.81897%,96.078491%);fill-opacity:1;" d="M 86.726562 86.726562 L 288.273438 86.726562 L 288.273438 288.273438 L 86.726562 288.273438 Z M 86.726562 86.726562 "/>
<path style=" stroke:none;fill-rule:nonzero;fill:rgb(91.758728%,37.249756%,32.159424%);fill-opacity:1;" d="M 285.921875 285.921875 L 290.625 285.921875 L 290.625 290.625 L 285.921875 290.625 Z M 84.375 89.078125 L 89.078125 89.078125 L 89.078125 285.921875 L 84.375 285.921875 Z M 84.375 285.921875 L 89.078125 285.921875 L 89.078125 290.625 L 84.375 290.625 Z M 285.921875 89.078125 L 290.625 89.078125 L 290.625 285.921875 L 285.921875 285.921875 Z M 89.078125 285.921875 L 285.921875 285.921875 L 285.921875 290.625 L 89.078125 290.625 Z M 285.921875 84.375 L 290.625 84.375 L 290.625 89.078125 L 285.921875 89.078125 Z M 84.375 84.375 L 89.078125 84.375 L 89.078125 89.078125 L 84.375 89.078125 Z M 89.078125 84.375 L 285.921875 84.375 L 285.921875 89.078125 L 89.078125 89.078125 Z M 89.078125 84.375 "/>
<g clip-path="url(#clip1)" clip-rule="nonzero">
<path style=" stroke:none;fill-rule:nonzero;fill:rgb(13.328552%,33.729553%,76.469421%);fill-opacity:1;" d="M 163.179688 155.828125 L 169.039062 163.339844 M 169.007812 163.339844 L 232.269531 244.5 C 227.574219 248.554688 219.085938 254.816406 206.859375 258.605469 C 206.859375 258.605469 196.125 261.824219 185.421875 261.824219 C 145.632812 261.824219 113.371094 229.652344 113.371094 189.964844 C 113.371094 180.039062 115.585938 171.839844 116.601562 168.589844 C 123.148438 147.777344 137.589844 135.671875 143.835938 131.019531 L 163.179688 155.828125 "/>
</g>
<path style=" stroke:none;fill-rule:nonzero;fill:rgb(30.979919%,73.728943%,61.569214%);fill-opacity:1;" d="M 232.269531 127.917969 C 234.210938 129.351562 236.09375 130.902344 237.890625 132.511719 M 237.890625 132.511719 C 252.449219 145.660156 261.597656 164.652344 261.597656 185.792969 C 261.597656 225.476562 229.339844 257.648438 189.546875 257.648438 C 149.757812 257.648438 117.5 225.476562 117.5 185.792969 C 117.5 146.105469 149.757812 113.933594 189.546875 113.933594 C 205.542969 113.933594 220.3125 119.125 232.269531 127.917969 "/>
<path style=" stroke:none;fill-rule:nonzero;fill:rgb(94.898987%,73.728943%,15.689087%);fill-opacity:1;" d="M 231.761719 134.71875 C 233.914062 136.507812 235.976562 138.414062 237.890625 140.441406 M 237.890625 140.441406 C 249.070312 152.277344 255.917969 168.230469 255.917969 185.792969 C 255.917969 222.347656 226.199219 251.984375 189.546875 251.984375 C 152.894531 251.984375 123.179688 222.347656 123.179688 185.792969 C 123.179688 149.238281 152.894531 119.601562 189.546875 119.601562 C 205.570312 119.601562 220.28125 125.265625 231.761719 134.71875 "/>
<path style=" stroke:none;fill-rule:nonzero;fill:rgb(19.999695%,19.999695%,19.999695%);fill-opacity:1;" d="M 219.292969 236.421875 C 219.980469 235.972656 220.191406 235.078125 219.773438 234.363281 L 214.003906 225.269531 C 213.554688 224.582031 212.65625 224.375 211.941406 224.792969 C 211.253906 225.238281 211.042969 226.132812 211.460938 226.851562 L 217.203125 235.945312 C 217.472656 236.390625 217.980469 236.628906 218.457031 236.628906 C 218.753906 236.660156 219.023438 236.570312 219.292969 236.421875 Z M 161.566406 235.972656 L 167.304688 226.878906 C 167.753906 226.191406 167.546875 225.269531 166.828125 224.820312 C 166.140625 224.375 165.214844 224.582031 164.765625 225.296875 L 159.023438 234.390625 C 158.578125 235.078125 158.785156 236.003906 159.503906 236.449219 C 159.742188 236.597656 160.011719 236.6875 160.28125 236.6875 C 160.820312 236.660156 161.296875 236.421875 161.566406 235.972656 Z M 215.140625 145.09375 L 220.878906 136 C 221.328125 135.3125 221.117188 134.390625 220.398438 133.941406 C 219.714844 133.496094 218.785156 133.703125 218.335938 134.417969 L 212.597656 143.511719 C 212.148438 144.199219 212.359375 145.125 213.074219 145.570312 C 213.316406 145.71875 213.585938 145.808594 213.851562 145.808594 C 214.359375 145.777344 214.839844 145.539062 215.140625 145.09375 Z M 167.964844 145.570312 C 168.652344 145.125 168.859375 144.230469 168.441406 143.511719 L 162.699219 134.417969 C 162.253906 133.734375 161.355469 133.523438 160.636719 133.941406 C 159.921875 134.359375 159.742188 135.285156 160.160156 136 L 165.902344 145.09375 C 166.167969 145.539062 166.675781 145.777344 167.15625 145.777344 C 167.457031 145.777344 167.722656 145.71875 167.964844 145.570312 Z M 231.878906 163.101562 L 241.089844 157.496094 C 241.777344 157.078125 242.015625 156.15625 241.566406 155.46875 C 241.148438 154.78125 240.222656 154.546875 239.535156 154.992188 L 230.328125 160.597656 C 229.636719 161.015625 229.398438 161.9375 229.847656 162.625 C 230.117188 163.070312 230.625 163.339844 231.101562 163.339844 C 231.371094 163.339844 231.640625 163.25 231.878906 163.101562 Z M 149.335938 162.625 C 149.757812 161.9375 149.546875 161.015625 148.859375 160.597656 L 139.652344 154.992188 C 138.964844 154.574219 138.035156 154.78125 137.617188 155.46875 C 137.199219 156.15625 137.410156 157.078125 138.097656 157.496094 L 147.304688 163.101562 C 147.542969 163.25 147.8125 163.3125 148.082031 163.3125 C 148.5625 163.339844 149.070312 163.070312 149.335938 162.625 Z M 242.3125 215.28125 C 242.734375 214.59375 242.523438 213.671875 241.835938 213.253906 L 232.628906 207.648438 C 231.941406 207.230469 231.011719 207.4375 230.59375 208.125 C 230.175781 208.8125 230.386719 209.734375 231.074219 210.152344 L 240.28125 215.757812 C 240.519531 215.90625 240.789062 215.96875 241.058594 215.96875 C 241.539062 215.996094 242.046875 215.757812 242.3125 215.28125 Z M 140.398438 215.789062 L 149.609375 210.183594 C 150.292969 209.765625 150.535156 208.839844 150.085938 208.152344 C 149.667969 207.46875 148.738281 207.230469 148.050781 207.675781 L 138.84375 213.253906 C 138.15625 213.671875 137.917969 214.59375 138.367188 215.28125 C 138.636719 215.726562 139.144531 215.996094 139.621094 215.996094 C 139.890625 215.996094 140.160156 215.9375 140.398438 215.789062 Z M 250.027344 185.792969 C 250.027344 184.988281 249.371094 184.300781 248.53125 184.300781 L 237.738281 184.300781 C 236.933594 184.300781 236.246094 184.957031 236.246094 185.792969 C 236.246094 186.628906 236.902344 187.28125 237.738281 187.28125 L 248.53125 187.28125 C 249.339844 187.28125 250.027344 186.628906 250.027344 185.792969 Z M 143.65625 185.375 C 143.65625 184.570312 143 183.882812 142.164062 183.882812 L 131.398438 183.882812 C 130.59375 183.882812 129.90625 184.539062 129.90625 185.375 C 129.90625 186.179688 130.5625 186.867188 131.398438 186.867188 L 142.191406 186.867188 C 143 186.867188 143.65625 186.179688 143.65625 185.375 Z M 191.042969 244.023438 L 191.042969 233.261719 C 191.042969 232.453125 190.386719 231.769531 189.546875 231.769531 C 188.742188 231.769531 188.054688 232.425781 188.054688 233.261719 L 188.054688 244.023438 C 188.054688 244.828125 188.710938 245.515625 189.546875 245.515625 C 190.355469 245.515625 191.042969 244.859375 191.042969 244.023438 Z M 189.546875 139.457031 C 188.742188 139.457031 188.054688 138.800781 188.054688 137.96875 L 188.054688 127.203125 C 188.054688 126.398438 188.710938 125.710938 189.546875 125.710938 C 190.355469 125.710938 191.042969 126.371094 191.042969 127.203125 L 191.042969 137.96875 C 191.042969 138.773438 190.355469 139.457031 189.546875 139.457031 "/>
<g clip-path="url(#clip2)" clip-rule="nonzero">
<path style=" stroke:none;fill-rule:nonzero;fill:rgb(19.999695%,19.999695%,19.999695%);fill-opacity:1;" d="M 255.167969 185.375 C 255.167969 149.265625 225.722656 119.929688 189.546875 119.929688 C 153.375 119.929688 123.898438 149.265625 123.898438 185.375 C 123.898438 221.484375 153.34375 250.820312 189.519531 250.820312 C 225.691406 250.820312 255.167969 221.484375 255.167969 185.375 Z M 256.664062 185.375 C 256.664062 222.289062 226.558594 252.3125 189.546875 252.3125 C 152.535156 252.3125 122.429688 222.289062 122.429688 185.375 C 122.429688 148.460938 152.535156 118.4375 189.546875 118.4375 C 226.558594 118.4375 256.664062 148.460938 256.664062 185.375 Z M 260.847656 185.375 C 260.847656 146.167969 228.859375 114.261719 189.546875 114.261719 C 150.234375 114.261719 118.246094 146.167969 118.246094 185.375 C 118.246094 224.582031 150.234375 256.488281 189.546875 256.488281 C 228.859375 256.488281 260.847656 224.582031 260.847656 185.375 Z M 215.585938 253.175781 C 207.484375 256.277344 198.726562 257.976562 189.546875 257.976562 C 149.398438 257.976562 116.75 225.417969 116.75 185.375 C 116.75 171.210938 120.847656 158.003906 127.871094 146.824219 C 123.6875 152.546875 119.890625 159.40625 117.347656 167.542969 C 116.394531 170.644531 114.152344 178.84375 114.152344 188.714844 C 114.152344 227.921875 146.140625 259.824219 185.453125 259.824219 C 195.886719 259.824219 206.558594 256.664062 206.648438 256.636719 C 209.726562 255.683594 212.6875 254.519531 215.585938 253.175781 Z M 232.867188 243.664062 C 232.835938 243.695312 232.808594 243.753906 232.746094 243.785156 C 225.183594 250.285156 216.542969 255.085938 207.066406 258.035156 C 206.945312 258.066406 196.09375 261.289062 185.421875 261.289062 C 145.300781 261.316406 112.65625 228.757812 112.65625 188.714844 C 112.65625 178.636719 114.957031 170.257812 115.914062 167.128906 C 121.863281 148.253906 134.152344 136.089844 143.449219 129.171875 C 143.507812 129.140625 143.566406 129.113281 143.597656 129.082031 C 156.152344 118.886719 172.148438 112.773438 189.546875 112.773438 C 229.699219 112.773438 262.34375 145.332031 262.34375 185.375 C 262.34375 209.226562 250.746094 230.425781 232.867188 243.664062 Z M 219.535156 187.28125 C 219.503906 187.28125 219.503906 187.28125 219.535156 187.28125 L 187.933594 186.894531 L 187.933594 149.835938 C 187.933594 149.03125 188.589844 148.34375 189.429688 148.34375 C 190.234375 148.34375 190.921875 149 190.921875 149.835938 L 190.921875 183.972656 L 219.5625 184.332031 C 220.371094 184.332031 221.027344 185.015625 221.027344 185.820312 C 220.996094 186.628906 220.339844 187.28125 219.535156 187.28125 "/>
</g>
</g>
</svg>
